<?xml version="1.0" standalone="no"?>
<!DOCTYPE svg PUBLIC "-//W3C//DTD SVG 20010904//EN"
 "http://www.w3.org/TR/2001/REC-SVG-20010904/DTD/svg10.dtd">
<svg version="1.0" xmlns="http://www.w3.org/2000/svg"
 width="1000.000000pt" height="1000.000000pt" viewBox="0 0 1000.000000 1000.000000"
 preserveAspectRatio="xMidYMid meet">

<g transform="translate(0.000000,1000.000000) scale(0.100000,-0.100000)"
fill="#000000" stroke="none">
<path d="M1911 5996 c-310 -179 -568 -329 -574 -335 -6 -6 -6 -256 -2 -669 l8
-659 370 -212 c203 -117 373 -209 377 -204 14 16 81 196 75 202 -4 3 -138 83
-298 176 l-292 171 0 534 0 534 454 263 454 264 190 -108 c104 -60 191 -107
195 -106 10 3 83 194 77 203 -7 11 -434 262 -454 267 -9 2 -270 -143 -580
-321z"/>
<path d="M4892 5976 c-69 -23 -104 -65 -131 -161 -19 -63 -30 -458 -21 -700
10 -259 26 -332 85 -384 46 -40 90 -51 205 -51 79 0 104 4 147 24 96 45 133
144 133 359 l0 117 -100 0 -100 0 0 -97 c0 -160 -22 -199 -105 -184 -58 12
-60 25 -60 436 0 204 3 382 8 397 16 60 111 77 139 25 6 -12 14 -75 16 -140
l4 -118 97 3 96 3 3 80 c3 82 -9 201 -28 267 -13 46 -52 93 -94 115 -43 23
-234 28 -294 9z"/>
<path d="M5850 5979 c-86 -26 -131 -96 -149 -232 -14 -103 -14 -723 0 -824 19
-138 64 -210 147 -233 50 -13 205 -13 253 1 60 18 105 62 130 127 18 47 23 84
27 210 l4 152 -101 0 -101 0 -1 -102 c0 -159 -21 -195 -104 -178 -58 11 -60
24 -60 440 0 275 3 382 12 403 17 37 53 53 95 41 44 -13 57 -52 57 -182 l1
-103 98 3 97 3 -1 135 c-1 197 -32 282 -118 327 -38 20 -233 28 -286 12z"/>
<path d="M7663 5980 c-57 -13 -96 -44 -123 -95 -24 -48 -25 -56 -25 -240 0
-254 4 -262 189 -366 43 -24 95 -58 115 -75 l36 -32 3 -104 c3 -78 0 -114 -12
-141 -14 -35 -17 -37 -64 -37 -72 0 -84 17 -90 135 l-5 95 -83 0 -83 0 -7 -57
c-8 -68 1 -198 18 -255 17 -56 64 -103 118 -118 68 -18 236 -9 285 15 43 22
78 67 96 124 17 56 24 346 9 416 -16 76 -51 111 -179 180 -52 28 -109 64 -128
81 l-33 31 0 107 c0 93 3 109 20 126 25 25 80 26 111 2 19 -16 23 -31 27 -105
l5 -87 82 0 83 0 7 65 c9 78 -1 187 -21 235 -22 52 -52 79 -108 95 -52 16
-187 19 -243 5z"/>
<path d="M8259 5974 c-56 -17 -103 -66 -121 -126 -17 -58 -17 -360 0 -410 17
-49 79 -103 185 -162 48 -27 101 -65 118 -83 28 -33 29 -36 29 -141 0 -139 -8
-156 -77 -160 -71 -4 -83 15 -86 137 l-2 91 -86 0 -86 0 -6 -67 c-7 -84 6
-218 26 -264 18 -43 62 -83 106 -98 43 -14 204 -14 256 0 51 14 110 73 124
124 32 109 36 361 8 458 -14 50 -63 92 -178 155 -151 82 -153 85 -157 181 -7
142 10 181 78 181 60 0 80 -32 80 -131 l0 -79 84 0 c98 0 96 -4 96 127 0 166
-36 239 -133 268 -63 19 -197 18 -258 -1z"/>
<path d="M2062 5727 l-422 -242 0 -485 0 -485 123 -70 c381 -216 445 -252 441
-241 -3 7 5 35 17 62 11 27 29 70 40 96 l18 47 -204 118 -204 118 2 355 2 355
305 177 305 177 30 -19 c122 -74 230 -129 234 -118 2 7 21 54 42 104 l37 92
-142 83 c-77 45 -155 91 -172 101 l-30 18 -422 -243z"/>
<path d="M4100 5953 c1 -10 29 -141 63 -292 l63 -273 -78 -332 c-42 -182 -77
-337 -78 -343 0 -10 27 -13 104 -13 91 0 105 2 110 18 3 9 23 114 46 232 23
118 44 226 47 240 l5 25 8 -25 c5 -14 28 -130 52 -257 l43 -233 108 0 c84 0
107 3 107 14 0 7 -34 162 -75 344 l-76 331 66 277 c36 153 65 284 65 291 0 10
-24 13 -98 13 l-99 0 -43 -210 c-24 -116 -46 -207 -50 -203 -3 4 -21 89 -39
188 -18 99 -35 190 -38 203 -5 21 -10 22 -109 22 -93 0 -104 -2 -104 -17z"/>
<path d="M6360 5335 l0 -635 230 0 230 0 0 110 0 110 -125 0 -125 0 0 525 0
525 -105 0 -105 0 0 -635z"/>
<path d="M6930 5335 l-65 -635 102 0 c91 0 103 2 104 18 0 9 6 80 12 157 l12
140 65 0 65 0 7 -70 c3 -38 9 -109 13 -157 l7 -88 104 0 c101 0 104 1 104 23
0 29 -109 1172 -116 1215 l-5 32 -172 0 -172 0 -65 -635z m240 415 c0 -20 40
-455 45 -492 l5 -38 -60 0 c-59 0 -59 0 -55 28 6 32 45 462 45 492 0 11 5 20
10 20 6 0 10 -5 10 -10z"/>
<path d="M2219 5466 l-264 -152 0 -314 0 -313 165 -94 c91 -51 170 -93 175
-93 6 0 27 44 48 97 30 75 35 98 25 105 -7 4 -53 31 -103 60 l-90 54 0 183 0
183 153 90 153 90 70 -37 69 -36 21 48 c11 26 30 70 41 98 l20 50 -23 15 c-12
8 -61 38 -109 66 l-86 51 -265 -151z"/>
<path d="M4072 4268 l1 -73 6 60 6 60 9 -52 c7 -49 20 -72 32 -60 3 3 9 27 14
54 l8 48 1 -47 c2 -73 21 -57 21 17 0 52 -3 65 -15 65 -18 0 -21 -7 -31 -75
l-8 -50 -9 63 c-6 42 -13 62 -23 62 -11 0 -14 -16 -12 -72z"/>
<path d="M4317 4333 c-14 -24 -38 -115 -33 -126 3 -7 7 -3 11 11 5 16 15 22
35 22 18 0 30 -7 38 -22 18 -38 15 6 -5 69 -15 47 -34 66 -46 46z m32 -65 c1
-12 -6 -18 -19 -18 -23 0 -24 5 -8 51 12 34 12 34 19 9 4 -14 7 -33 8 -42z"/>
<path d="M4500 4275 c0 -37 4 -65 10 -65 6 0 10 11 10 25 0 20 5 25 25 25 20
0 25 -5 25 -24 0 -14 5 -28 10 -31 6 -4 10 20 10 65 0 45 -4 69 -10 65 -5 -3
-10 -17 -10 -31 0 -19 -5 -24 -25 -24 -21 0 -25 5 -25 30 0 17 -4 30 -10 30
-6 0 -10 -28 -10 -65z"/>
<path d="M4725 4275 c-9 -36 -15 -68 -12 -71 3 -3 8 4 12 15 4 15 15 21 35 21
20 0 31 -6 35 -21 4 -11 9 -18 12 -15 4 3 -2 35 -12 71 -24 89 -45 89 -70 0z
m49 23 c10 -38 7 -48 -15 -48 -17 0 -20 4 -15 23 3 12 6 28 6 35 0 21 17 13
24 -10z"/>
<path d="M4940 4325 c-18 -22 -6 -42 35 -60 42 -17 42 -38 2 -43 -21 -3 -29 2
-35 19 -6 14 -11 18 -16 11 -9 -15 28 -52 52 -52 25 0 42 19 42 47 0 17 -8 24
-32 31 -36 9 -49 38 -22 49 11 4 23 -1 36 -16 11 -15 18 -18 18 -9 0 35 -56
52 -80 23z"/>
<path d="M5150 4330 c0 -5 7 -10 15 -10 11 0 15 -12 15 -50 0 -38 -4 -50 -15
-50 -8 0 -15 -4 -15 -10 0 -5 18 -10 40 -10 22 0 40 5 40 10 0 6 -7 10 -15 10
-11 0 -15 12 -15 50 0 38 4 50 15 50 8 0 15 5 15 10 0 6 -18 10 -40 10 -22 0
-40 -4 -40 -10z"/>
<path d="M5373 4333 c-7 -2 -13 -15 -13 -27 0 -18 10 -27 41 -39 46 -18 48
-40 6 -45 -21 -3 -29 2 -35 19 -6 14 -11 18 -16 11 -9 -15 28 -52 52 -52 25 0
42 19 42 47 0 17 -8 24 -32 31 -36 9 -49 38 -22 49 11 4 23 -2 35 -18 13 -17
19 -20 19 -8 0 31 -39 48 -77 32z"/>
<path d="M5566 4283 c7 -74 11 -86 27 -81 6 3 14 28 17 59 l6 54 9 -54 c6 -30
15 -56 21 -58 14 -5 24 44 23 101 -2 40 -2 39 -14 -19 -12 -58 -13 -59 -14
-18 -1 52 -9 73 -27 73 -10 0 -14 -13 -14 -45 0 -25 -4 -45 -10 -45 -5 0 -10
20 -10 45 0 25 -5 45 -10 45 -6 0 -8 -22 -4 -57z"/>
<path d="M5810 4316 c-17 -47 -31 -108 -25 -114 3 -3 8 4 12 16 8 31 60 31 72
0 17 -48 16 1 -2 60 -20 66 -41 80 -57 38z m39 -48 c1 -12 -6 -18 -19 -18 -23
0 -24 5 -8 51 12 34 12 34 19 9 4 -14 7 -33 8 -42z"/>
<path d="M6216 4274 c1 -36 4 -68 8 -71 3 -3 21 -2 40 1 37 7 51 28 37 54 -5
10 -5 22 2 33 16 26 -8 49 -52 49 l-36 0 1 -66z m72 29 c-2 -10 -13 -19 -26
-21 -17 -3 -22 2 -22 17 0 16 6 21 26 21 19 0 25 -5 22 -17z m0 -60 c-2 -10
-13 -19 -26 -21 -17 -3 -22 2 -22 17 0 16 6 21 26 21 19 0 25 -5 22 -17z"/>
<path d="M6434 4326 c-3 -7 -4 -38 -2 -67 3 -53 3 -54 37 -57 18 -2 38 1 44 7
8 8 0 11 -26 11 -30 0 -37 4 -37 20 0 15 7 20 29 20 17 0 33 5 36 10 4 6 -8
10 -29 10 -29 0 -36 4 -36 20 0 15 7 20 29 20 17 0 33 5 36 10 4 6 -10 10 -35
10 -25 0 -43 -5 -46 -14z"/>
<path d="M6646 4274 c1 -36 4 -68 8 -71 3 -3 21 -2 40 1 37 7 51 28 37 54 -5
10 -5 22 2 33 16 26 -8 49 -52 49 l-36 0 1 -66z m72 29 c-2 -10 -13 -19 -26
-21 -17 -3 -22 2 -22 17 0 16 6 21 26 21 19 0 25 -5 22 -17z m0 -60 c-2 -10
-13 -19 -26 -21 -17 -3 -22 2 -22 17 0 16 6 21 26 21 19 0 25 -5 22 -17z"/>
<path d="M6862 4282 c-2 -57 0 -63 22 -73 17 -8 29 -8 45 0 18 10 21 21 21 71
0 33 -4 60 -10 60 -6 0 -10 -27 -10 -60 0 -57 -1 -60 -25 -60 -26 0 -32 12
-38 85 -3 27 -4 20 -5 -23z"/>
<path d="M7078 4328 c15 -15 16 -108 1 -108 -5 0 -7 -4 -4 -10 10 -17 54 -11
75 10 24 24 27 82 4 104 -8 9 -32 16 -52 16 -28 0 -33 -3 -24 -12z m67 -58 c0
-39 -3 -45 -22 -48 -21 -3 -23 0 -23 48 0 48 2 51 23 48 19 -3 22 -9 22 -48z"/>
<path d="M7290 4330 c0 -5 9 -10 20 -10 17 0 20 -7 20 -50 0 -43 -3 -50 -20
-50 -11 0 -20 -4 -20 -10 0 -5 18 -10 39 -10 22 0 43 5 46 10 3 6 -3 10 -14
10 -18 0 -21 6 -21 50 0 37 4 50 14 50 8 0 18 5 21 10 4 6 -12 10 -39 10 -25
0 -46 -4 -46 -10z"/>
<path d="M7720 4270 l0 -70 39 0 c22 0 43 5 46 10 4 6 -8 10 -29 10 l-36 0 0
60 c0 33 -4 60 -10 60 -6 0 -10 -30 -10 -70z"/>
<path d="M7930 4286 c0 -57 16 -86 49 -86 31 0 41 22 39 85 -1 43 -2 49 -5 20
-6 -74 -12 -87 -36 -83 -19 3 -22 10 -25 61 -4 72 -22 75 -22 3z"/>
<path d="M8153 4270 c0 -41 2 -60 4 -42 4 28 8 32 34 32 26 0 29 -3 29 -31 0
-17 4 -28 10 -24 6 3 10 35 10 71 0 36 -4 64 -10 64 -5 0 -10 -13 -10 -30 0
-27 -3 -30 -29 -30 -26 0 -30 4 -34 33 -2 17 -4 -2 -4 -43z"/>
<path d="M8360 4280 c0 -54 3 -62 24 -71 17 -8 29 -8 45 0 18 10 21 20 19 74
-1 43 -2 50 -5 22 -6 -73 -12 -85 -38 -85 -24 0 -25 3 -25 60 0 33 -4 60 -10
60 -6 0 -10 -27 -10 -60z"/>
<path d="M8582 4268 c0 -40 3 -58 5 -40 4 29 8 33 31 30 21 -2 28 -10 33 -33
4 -25 6 -20 10 25 7 72 -2 90 -46 90 l-35 0 2 -72z m68 32 c0 -16 -7 -20 -30
-20 -23 0 -30 4 -30 20 0 16 7 20 30 20 23 0 30 -4 30 -20z"/>
</g>
</svg>
