<svg data-v-423bf9ae="" xmlns="http://www.w3.org/2000/svg" viewBox="0 0 314 97" class="iconLeftSlogan"><!----><!----><!----><g data-v-423bf9ae="" id="53274d96-1665-445e-9915-24467e7d473d" fill="#141414" transform="matrix(5.474453012044838,0,0,5.474453012044838,103.21401091675563,-14.726279392488486)"><path d="M5.46 13.47L5.46 13.41L4.16 7.70L5.28 2.94L5.28 2.87L3.61 2.87C3.01 5.74 2.93 6.10 2.91 6.34L2.79 6.34C2.77 6.10 2.70 5.74 2.16 2.87L0.38 2.87L0.38 2.94L1.46 7.71L0.14 13.41L0.14 13.47L1.92 13.47C2.60 10.07 2.70 9.59 2.72 9.21L2.84 9.21C2.86 9.59 2.98 10.07 3.63 13.47ZM8.83 9.41C8.85 9.55 8.85 9.65 8.85 9.81C8.85 10.61 8.82 11.05 8.74 11.42C8.68 11.68 8.51 11.82 8.19 11.82C7.77 11.82 7.63 11.72 7.56 11.47C7.45 11.09 7.41 10.64 7.41 8.06C7.41 5.53 7.45 5.11 7.56 4.75C7.63 4.49 7.77 4.40 8.13 4.40C8.48 4.40 8.60 4.49 8.68 4.68C8.78 4.89 8.83 5.38 8.83 6.01C8.83 6.38 8.83 6.55 8.82 6.75L10.46 6.75C10.49 6.50 10.49 6.34 10.49 5.89C10.49 4.66 10.33 3.81 10.00 3.33C9.70 2.88 9.20 2.69 8.13 2.69C6.96 2.69 6.47 2.91 6.15 3.54C5.88 4.06 5.70 4.56 5.70 8.08C5.70 11.35 5.82 12.17 6.13 12.78C6.44 13.43 7 13.65 8.19 13.65C10.12 13.65 10.51 12.59 10.51 10.36C10.51 9.90 10.51 9.66 10.47 9.41ZM16.76 9.41C16.77 9.55 16.77 9.65 16.77 9.81C16.77 10.61 16.74 11.05 16.66 11.42C16.60 11.68 16.44 11.82 16.11 11.82C15.69 11.82 15.55 11.72 15.48 11.47C15.37 11.09 15.33 10.64 15.33 8.06C15.33 5.53 15.37 5.11 15.48 4.75C15.55 4.49 15.69 4.40 16.06 4.40C16.41 4.40 16.52 4.49 16.60 4.68C16.70 4.89 16.76 5.38 16.76 6.01C16.76 6.38 16.76 6.55 16.74 6.75L18.38 6.75C18.41 6.50 18.41 6.34 18.41 5.89C18.41 4.66 18.26 3.81 17.92 3.33C17.63 2.88 17.12 2.69 16.06 2.69C14.88 2.69 14.39 2.91 14.07 3.54C13.80 4.06 13.62 4.56 13.62 8.08C13.62 11.35 13.75 12.17 14.06 12.78C14.36 13.43 14.92 13.65 16.11 13.65C18.05 13.65 18.44 12.59 18.44 10.36C18.44 9.90 18.44 9.66 18.40 9.41ZM23.06 13.47L23.06 11.63L20.99 11.63L20.99 2.87L19.26 2.87L19.26 13.47ZM28.45 13.47L27.43 2.87L24.53 2.87L23.44 13.47L25.16 13.47L25.37 10.81L26.46 10.81L26.67 13.47ZM26.39 9.13L25.44 9.13L25.86 4.61L25.98 4.61ZM33.12 6.16C33.19 5.91 33.22 5.59 33.22 5.00C33.22 3.28 32.80 2.69 31.04 2.69C29.34 2.69 28.81 3.26 28.81 5.26C28.81 7.20 28.91 7.52 29.37 7.94C29.90 8.43 30.95 8.79 31.44 9.28C31.72 9.56 31.75 9.67 31.75 10.44C31.75 11.77 31.58 11.90 31.02 11.90C30.49 11.90 30.34 11.70 30.34 10.54C30.34 10.28 30.34 10.08 30.37 9.93L28.92 9.93C28.87 10.18 28.83 10.57 28.83 11.02C28.83 13.20 29.44 13.65 31.00 13.65C32.77 13.65 33.35 13.09 33.35 10.47C33.35 8.57 33.18 8.29 32.51 7.83C32.06 7.52 31.11 7.13 30.67 6.75C30.39 6.50 30.38 6.41 30.38 5.52C30.38 4.51 30.52 4.37 31.04 4.37C31.64 4.37 31.72 4.69 31.72 5.50C31.72 5.84 31.71 6.01 31.70 6.16ZM38.23 6.16C38.30 5.91 38.33 5.59 38.33 5.00C38.33 3.28 37.91 2.69 36.15 2.69C34.45 2.69 33.92 3.26 33.92 5.26C33.92 7.20 34.02 7.52 34.48 7.94C35.01 8.43 36.06 8.79 36.55 9.28C36.83 9.56 36.86 9.67 36.86 10.44C36.86 11.77 36.69 11.90 36.13 11.90C35.60 11.90 35.45 11.70 35.45 10.54C35.45 10.28 35.45 10.08 35.48 9.93L34.03 9.93C33.98 10.18 33.94 10.57 33.94 11.02C33.94 13.20 34.55 13.65 36.11 13.65C37.88 13.65 38.46 13.09 38.46 10.47C38.46 8.57 38.29 8.29 37.62 7.83C37.17 7.52 36.22 7.13 35.78 6.75C35.50 6.50 35.49 6.41 35.49 5.52C35.49 4.51 35.63 4.37 36.15 4.37C36.75 4.37 36.83 4.69 36.83 5.50C36.83 5.84 36.82 6.01 36.81 6.16Z"></path></g><defs data-v-423bf9ae=""><linearGradient data-v-423bf9ae="" gradientTransform="rotate(25)" id="a8facf6d-14fa-4af0-97ef-b023d022f040" x1="0%" y1="0%" x2="100%" y2="0%"><stop data-v-423bf9ae="" offset="0%" style="stop-color: rgb(11, 31, 212); stop-opacity: 1;"></stop><stop data-v-423bf9ae="" offset="100%" style="stop-color: rgb(11, 212, 197); stop-opacity: 1;"></stop></linearGradient></defs><g data-v-423bf9ae="" id="040906b9-f70f-4845-9704-4df5f7a620e5" transform="matrix(1.037999979654948,0,0,1.037999979654948,-9.353002021153713,-2.6099980309804494)" stroke="none" fill="url(#a8facf6d-14fa-4af0-97ef-b023d022f040)"><path d="M31.112 39.094v21.812L49.999 71.81l18.89-10.903V39.094l-18.89-10.905-18.887 10.905zm29.813 17.214l-10.926 6.307-10.924-6.307V43.692l10.924-6.308 10.926 6.308v12.616z"></path><path d="M49.999 3.29L9.547 26.646v46.709L49.999 96.71l40.454-23.355V26.646L49.999 3.29zM82.19 68.584L49.999 87.169 17.811 68.584v-37.17l32.188-18.585L82.19 31.414v37.17z"></path><path d="M20.368 32.89v34.218l29.631 17.108 29.634-17.108V32.89L49.999 15.782 20.368 32.89zm51.078 29.493l-21.447 12.38-21.444-12.38V37.618l21.444-12.382 21.447 12.382v24.765z"></path></g><!----><g data-v-423bf9ae="" id="14d83435-f3c1-4432-96da-7f877743f896" fill="#000000" transform="matrix(0.5025147316310491,0,0,0.5025147316310491,103.65882316544567,57.145716767364554)"><path d="M0.64 15.68L0.64 5.88L2.88 5.88L4.20 15.18L4.37 15.18L5.68 5.88L7.92 5.88L7.92 15.68L6.83 15.68L6.83 6.38L6.66 6.38L5.35 15.68L3.22 15.68L1.90 6.38L1.74 6.38L1.74 15.68L0.64 15.68ZM22.67 15.68L21.95 13.24L17.75 13.24L17.04 15.68L15.78 15.68L18.75 5.88L20.96 5.88L23.93 15.68L22.67 15.68ZM19.94 6.38L19.77 6.38L18.07 12.15L21.63 12.15L19.94 6.38ZM32.16 15.68L32.16 5.88L33.33 5.88L33.33 10.22L37.51 10.22L37.51 5.88L38.68 5.88L38.68 15.68L37.51 15.68L37.51 11.31L33.33 11.31L33.33 15.68L32.16 15.68ZM53.80 15.68L53.09 13.24L48.89 13.24L48.17 15.68L46.91 15.68L49.88 5.88L52.09 5.88L55.06 15.68L53.80 15.68ZM51.07 6.38L50.90 6.38L49.21 12.15L52.77 12.15L51.07 6.38ZM68.87 9.21L68.87 8.71L68.87 8.71Q68.87 8.23 68.68 7.87L68.68 7.87L68.68 7.87Q68.49 7.50 68.17 7.27L68.17 7.27L68.17 7.27Q67.84 7.03 67.42 6.90L67.42 6.90L67.42 6.90Q67.00 6.78 66.54 6.78L66.54 6.78L66.54 6.78Q66.14 6.78 65.77 6.88L65.77 6.88L65.77 6.88Q65.41 6.99 65.12 7.18L65.12 7.18L65.12 7.18Q64.83 7.38 64.67 7.66L64.67 7.66L64.67 7.66Q64.50 7.95 64.50 8.33L64.50 8.33L64.50 8.41L64.50 8.41Q64.50 8.82 64.67 9.11L64.67 9.11L64.67 9.11Q64.83 9.39 65.16 9.60L65.16 9.60L65.16 9.60Q65.49 9.80 65.98 9.93L65.98 9.93L65.98 9.93Q66.47 10.07 67.13 10.16L67.13 10.16L67.13 10.16Q68.67 10.40 69.40 11.07L69.40 11.07L69.40 11.07Q70.13 11.73 70.13 12.85L70.13 12.85L70.13 13.02L70.13 13.02Q70.13 13.65 69.91 14.17L69.91 14.17L69.91 14.17Q69.69 14.70 69.27 15.08L69.27 15.08L69.27 15.08Q68.84 15.46 68.21 15.67L68.21 15.67L68.21 15.67Q67.58 15.88 66.75 15.88L66.75 15.88L66.75 15.88Q65.81 15.88 65.09 15.60L65.09 15.60L65.09 15.60Q64.37 15.33 63.89 14.85L63.89 14.85L63.89 14.85Q63.41 14.36 63.15 13.71L63.15 13.71L63.15 13.71Q62.90 13.06 62.90 12.29L62.90 12.29L62.90 11.87L64.08 11.87L64.08 12.21L64.08 12.21Q64.08 13.50 64.78 14.14L64.78 14.14L64.78 14.14Q65.49 14.78 66.75 14.78L66.75 14.78L66.75 14.78Q67.84 14.78 68.40 14.30L68.40 14.30L68.40 14.30Q68.95 13.82 68.95 13.02L68.95 13.02L68.95 12.94L68.95 12.94Q68.95 12.17 68.38 11.76L68.38 11.76L68.38 11.76Q67.82 11.35 66.54 11.17L66.54 11.17L66.54 11.17Q65.80 11.07 65.20 10.87L65.20 10.87L65.20 10.87Q64.61 10.67 64.19 10.34L64.19 10.34L64.19 10.34Q63.77 10.01 63.55 9.55L63.55 9.55L63.55 9.55Q63.32 9.09 63.32 8.46L63.32 8.46L63.32 8.29L63.32 8.29Q63.32 7.71 63.56 7.24L63.56 7.24L63.56 7.24Q63.80 6.76 64.22 6.41L64.22 6.41L64.22 6.41Q64.65 6.06 65.25 5.87L65.25 5.87L65.25 5.87Q65.84 5.68 66.56 5.68L66.56 5.68L66.56 5.68Q67.38 5.68 68.03 5.92L68.03 5.92L68.03 5.92Q68.68 6.16 69.13 6.56L69.13 6.56L69.13 6.56Q69.58 6.96 69.81 7.50L69.81 7.50L69.81 7.50Q70.04 8.04 70.04 8.62L70.04 8.62L70.04 9.21L68.87 9.21ZM79.02 6.97L79.02 5.88L85.23 5.88L85.23 6.97L82.71 6.97L82.71 14.59L85.23 14.59L85.23 15.68L79.02 15.68L79.02 14.59L81.54 14.59L81.54 6.97L79.02 6.97ZM100.00 9.21L100.00 8.71L100.00 8.71Q100.00 8.23 99.81 7.87L99.81 7.87L99.81 7.87Q99.62 7.50 99.30 7.27L99.30 7.27L99.30 7.27Q98.98 7.03 98.56 6.90L98.56 6.90L98.56 6.90Q98.14 6.78 97.68 6.78L97.68 6.78L97.68 6.78Q97.27 6.78 96.91 6.88L96.91 6.88L96.91 6.88Q96.54 6.99 96.26 7.18L96.26 7.18L96.26 7.18Q95.97 7.38 95.80 7.66L95.80 7.66L95.80 7.66Q95.63 7.95 95.63 8.33L95.63 8.33L95.63 8.41L95.63 8.41Q95.63 8.82 95.80 9.11L95.80 9.11L95.80 9.11Q95.97 9.39 96.30 9.60L96.30 9.60L96.30 9.60Q96.63 9.80 97.12 9.93L97.12 9.93L97.12 9.93Q97.61 10.07 98.27 10.16L98.27 10.16L98.27 10.16Q99.81 10.40 100.53 11.07L100.53 11.07L100.53 11.07Q101.26 11.73 101.26 12.85L101.26 12.85L101.26 13.02L101.26 13.02Q101.26 13.65 101.05 14.17L101.05 14.17L101.05 14.17Q100.83 14.70 100.40 15.08L100.40 15.08L100.40 15.08Q99.97 15.46 99.34 15.67L99.34 15.67L99.34 15.67Q98.71 15.88 97.89 15.88L97.89 15.88L97.89 15.88Q96.95 15.88 96.23 15.60L96.23 15.60L96.23 15.60Q95.51 15.33 95.03 14.85L95.03 14.85L95.03 14.85Q94.54 14.36 94.29 13.71L94.29 13.71L94.29 13.71Q94.04 13.06 94.04 12.29L94.04 12.29L94.04 11.87L95.21 11.87L95.21 12.21L95.21 12.21Q95.21 13.50 95.92 14.14L95.92 14.14L95.92 14.14Q96.63 14.78 97.89 14.78L97.89 14.78L97.89 14.78Q98.98 14.78 99.53 14.30L99.53 14.30L99.53 14.30Q100.09 13.82 100.09 13.02L100.09 13.02L100.09 12.94L100.09 12.94Q100.09 12.17 99.52 11.76L99.52 11.76L99.52 11.76Q98.95 11.35 97.68 11.17L97.68 11.17L97.68 11.17Q96.94 11.07 96.34 10.87L96.34 10.87L96.34 10.87Q95.75 10.67 95.33 10.34L95.33 10.34L95.33 10.34Q94.91 10.01 94.68 9.55L94.68 9.55L94.68 9.55Q94.46 9.09 94.46 8.46L94.46 8.46L94.46 8.29L94.46 8.29Q94.46 7.71 94.70 7.24L94.70 7.24L94.70 7.24Q94.93 6.76 95.36 6.41L95.36 6.41L95.36 6.41Q95.79 6.06 96.38 5.87L96.38 5.87L96.38 5.87Q96.98 5.68 97.69 5.68L97.69 5.68L97.69 5.68Q98.52 5.68 99.17 5.92L99.17 5.92L99.17 5.92Q99.82 6.16 100.27 6.56L100.27 6.56L100.27 6.56Q100.72 6.96 100.95 7.50L100.95 7.50L100.95 7.50Q101.18 8.04 101.18 8.62L101.18 8.62L101.18 9.21L100.00 9.21ZM117.39 5.88L116.40 15.68L114.25 15.68L113.34 6.38L113.18 6.38L112.27 15.68L110.12 15.68L109.13 5.88L110.19 5.88L111.13 15.18L111.30 15.18L112.18 5.88L114.34 5.88L115.22 15.18L115.39 15.18L116.33 5.88L117.39 5.88ZM131.64 15.68L130.93 13.24L126.73 13.24L126.01 15.68L124.75 15.68L127.72 5.88L129.93 5.88L132.90 15.68L131.64 15.68ZM128.91 6.38L128.74 6.38L127.05 12.15L130.61 12.15L128.91 6.38ZM156.48 15.68L156.48 14.59L157.32 14.59L157.32 6.97L156.48 6.97L156.48 5.88L160.44 5.88L160.44 5.88Q161.14 5.88 161.68 6.08L161.68 6.08L161.68 6.08Q162.22 6.27 162.59 6.61L162.59 6.61L162.59 6.61Q162.96 6.94 163.15 7.41L163.15 7.41L163.15 7.41Q163.34 7.88 163.34 8.43L163.34 8.43L163.34 8.60L163.34 8.60Q163.34 9.00 163.21 9.34L163.21 9.34L163.21 9.34Q163.09 9.67 162.86 9.94L162.86 9.94L162.86 9.94Q162.64 10.21 162.34 10.39L162.34 10.39L162.34 10.39Q162.04 10.58 161.69 10.68L161.69 10.68L161.69 10.85L161.69 10.85Q162.39 11.05 162.86 11.60L162.86 11.60L162.86 11.60Q163.34 12.15 163.34 12.95L163.34 12.95L163.34 13.12L163.34 13.12Q163.34 13.66 163.15 14.13L163.15 14.13L163.15 14.13Q162.96 14.60 162.59 14.95L162.59 14.95L162.59 14.95Q162.22 15.29 161.68 15.48L161.68 15.48L161.68 15.48Q161.14 15.68 160.44 15.68L160.44 15.68L156.48 15.68ZM158.49 11.31L158.49 14.59L160.36 14.59L160.36 14.59Q161.18 14.59 161.70 14.17L161.70 14.17L161.70 14.17Q162.22 13.76 162.22 13.03L162.22 13.03L162.22 12.95L162.22 12.95Q162.22 12.19 161.73 11.75L161.73 11.75L161.73 11.75Q161.24 11.31 160.40 11.31L160.40 11.31L158.49 11.31ZM158.49 6.97L158.49 10.22L160.40 10.22L160.40 10.22Q161.24 10.22 161.73 9.79L161.73 9.79L161.73 9.79Q162.22 9.35 162.22 8.60L162.22 8.60L162.22 8.51L162.22 8.51Q162.22 7.80 161.70 7.38L161.70 7.38L161.70 7.38Q161.18 6.97 160.36 6.97L160.36 6.97L158.49 6.97ZM172.56 15.68L172.56 5.88L178.50 5.88L178.50 6.97L173.74 6.97L173.74 10.22L178.42 10.22L178.42 11.31L173.74 11.31L173.74 14.59L178.58 14.59L178.58 15.68L172.56 15.68ZM187.61 15.68L187.61 14.59L188.45 14.59L188.45 6.97L187.61 6.97L187.61 5.88L191.58 5.88L191.58 5.88Q192.28 5.88 192.82 6.08L192.82 6.08L192.82 6.08Q193.35 6.27 193.73 6.61L193.73 6.61L193.73 6.61Q194.10 6.94 194.29 7.41L194.29 7.41L194.29 7.41Q194.47 7.88 194.47 8.43L194.47 8.43L194.47 8.60L194.47 8.60Q194.47 9.00 194.35 9.34L194.35 9.34L194.35 9.34Q194.22 9.67 194.00 9.94L194.00 9.94L194.00 9.94Q193.77 10.21 193.47 10.39L193.47 10.39L193.47 10.39Q193.17 10.58 192.82 10.68L192.82 10.68L192.82 10.85L192.82 10.85Q193.52 11.05 194.00 11.60L194.00 11.60L194.00 11.60Q194.47 12.15 194.47 12.95L194.47 12.95L194.47 13.12L194.47 13.12Q194.47 13.66 194.29 14.13L194.29 14.13L194.29 14.13Q194.10 14.60 193.73 14.95L193.73 14.95L193.73 14.95Q193.35 15.29 192.82 15.48L192.82 15.48L192.82 15.48Q192.28 15.68 191.58 15.68L191.58 15.68L187.61 15.68ZM189.63 11.31L189.63 14.59L191.49 14.59L191.49 14.59Q192.32 14.59 192.84 14.17L192.84 14.17L192.84 14.17Q193.35 13.76 193.35 13.03L193.35 13.03L193.35 12.95L193.35 12.95Q193.35 12.19 192.86 11.75L192.86 11.75L192.86 11.75Q192.37 11.31 191.53 11.31L191.53 11.31L189.63 11.31ZM189.63 6.97L189.63 10.22L191.53 10.22L191.53 10.22Q192.37 10.22 192.86 9.79L192.86 9.79L192.86 9.79Q193.35 9.35 193.35 8.60L193.35 8.60L193.35 8.51L193.35 8.51Q193.35 7.80 192.84 7.38L192.84 7.38L192.84 7.38Q192.32 6.97 191.49 6.97L191.49 6.97L189.63 6.97ZM203.31 5.88L204.48 5.88L204.48 12.38L204.48 12.38Q204.48 13.57 205.04 14.17L205.04 14.17L205.04 14.17Q205.59 14.78 206.67 14.78L206.67 14.78L206.67 14.78Q207.75 14.78 208.30 14.17L208.30 14.17L208.30 14.17Q208.85 13.57 208.85 12.38L208.85 12.38L208.85 5.88L210.03 5.88L210.03 12.38L210.03 12.38Q210.03 14.08 209.13 14.98L209.13 14.98L209.13 14.98Q208.24 15.88 206.67 15.88L206.67 15.88L206.67 15.88Q205.10 15.88 204.20 14.98L204.20 14.98L204.20 14.98Q203.31 14.08 203.31 12.38L203.31 12.38L203.31 5.88ZM218.97 6.97L218.97 5.88L222.19 5.88L222.19 5.88Q224.01 5.88 224.85 6.75L224.85 6.75L224.85 6.75Q225.69 7.62 225.69 9.52L225.69 9.52L225.69 12.04L225.69 12.04Q225.69 13.94 224.85 14.81L224.85 14.81L224.85 14.81Q224.01 15.68 222.19 15.68L222.19 15.68L218.97 15.68L218.97 14.57L219.81 14.57L219.81 6.97L218.97 6.97ZM220.99 14.59L222.03 14.59L222.03 14.59Q222.67 14.59 223.14 14.46L223.14 14.46L223.14 14.46Q223.61 14.34 223.92 14.04L223.92 14.04L223.92 14.04Q224.22 13.73 224.37 13.23L224.37 13.23L224.37 13.23Q224.52 12.73 224.52 11.96L224.52 11.96L224.52 9.60L224.52 9.60Q224.52 8.83 224.37 8.33L224.37 8.33L224.37 8.33Q224.22 7.83 223.92 7.53L223.92 7.53L223.92 7.53Q223.61 7.22 223.14 7.10L223.14 7.10L223.14 7.10Q222.67 6.97 222.03 6.97L222.03 6.97L220.99 6.97L220.99 14.59ZM234.70 6.97L234.70 5.88L240.91 5.88L240.91 6.97L238.39 6.97L238.39 14.59L240.91 14.59L240.91 15.68L234.70 15.68L234.70 14.59L237.22 14.59L237.22 6.97L234.70 6.97ZM265.87 15.68L265.87 5.88L267.05 5.88L267.05 14.59L272.17 14.59L272.17 15.68L265.87 15.68ZM281.15 5.88L282.32 5.88L282.32 12.38L282.32 12.38Q282.32 13.57 282.88 14.17L282.88 14.17L282.88 14.17Q283.43 14.78 284.51 14.78L284.51 14.78L284.51 14.78Q285.59 14.78 286.14 14.17L286.14 14.17L286.14 14.17Q286.69 13.57 286.69 12.38L286.69 12.38L286.69 5.88L287.87 5.88L287.87 12.38L287.87 12.38Q287.87 14.08 286.97 14.98L286.97 14.98L286.97 14.98Q286.08 15.88 284.51 15.88L284.51 15.88L284.51 15.88Q282.94 15.88 282.04 14.98L282.04 14.98L282.04 14.98Q281.15 14.08 281.15 12.38L281.15 12.38L281.15 5.88ZM296.81 15.68L296.81 5.88L297.99 5.88L297.99 10.22L302.16 10.22L302.16 5.88L303.34 5.88L303.34 15.68L302.16 15.68L302.16 11.31L297.99 11.31L297.99 15.68L296.81 15.68ZM312.28 5.88L313.46 5.88L313.46 12.38L313.46 12.38Q313.46 13.57 314.01 14.17L314.01 14.17L314.01 14.17Q314.57 14.78 315.64 14.78L315.64 14.78L315.64 14.78Q316.72 14.78 317.28 14.17L317.28 14.17L317.28 14.17Q317.83 13.57 317.83 12.38L317.83 12.38L317.83 5.88L319.00 5.88L319.00 12.38L319.00 12.38Q319.00 14.08 318.11 14.98L318.11 14.98L318.11 14.98Q317.21 15.88 315.64 15.88L315.64 15.88L315.64 15.88Q314.08 15.88 313.18 14.98L313.18 14.98L313.18 14.98Q312.28 14.08 312.28 12.38L312.28 12.38L312.28 5.88ZM334.28 12.15L334.28 15.68L333.10 15.68L333.10 12.40L333.10 12.40Q333.10 12.04 332.93 11.84L332.93 11.84L332.93 11.84Q332.77 11.65 332.35 11.65L332.35 11.65L329.29 11.65L329.29 15.68L328.12 15.68L328.12 5.88L331.62 5.88L331.62 5.88Q332.37 5.88 332.93 6.10L332.93 6.10L332.93 6.10Q333.49 6.31 333.87 6.68L333.87 6.68L333.87 6.68Q334.24 7.04 334.43 7.53L334.43 7.53L334.43 7.53Q334.61 8.01 334.61 8.54L334.61 8.54L334.61 8.96L334.61 8.96Q334.61 9.51 334.31 10.05L334.31 10.05L334.31 10.05Q334.01 10.60 333.38 10.89L333.38 10.89L333.38 11.06L333.38 11.06Q333.80 11.13 334.04 11.40L334.04 11.40L334.04 11.40Q334.28 11.66 334.28 12.15L334.28 12.15ZM329.29 6.97L329.29 10.56L331.48 10.56L331.48 10.56Q332.47 10.56 332.95 10.13L332.95 10.13L332.95 10.13Q333.44 9.70 333.44 8.88L333.44 8.88L333.44 8.62L333.44 8.62Q333.44 7.88 332.95 7.43L332.95 7.43L332.95 7.43Q332.47 6.97 331.48 6.97L331.48 6.97L329.29 6.97Z"></path></g></svg>