<svg data-v-423bf9ae="" xmlns="http://www.w3.org/2000/svg" viewBox="0 0 209.7810377508877 60" class="font"><!----><!----><!----><g data-v-423bf9ae="" id="07aa6875-6343-4216-9f90-82f7142ec19b" fill="black" transform="matrix(5.474453012044838,0,0,5.474453012044838,-0.7664196862717176,-14.726279392488486)"><path d="M5.46 13.47L5.46 13.41L4.16 7.70L5.28 2.94L5.28 2.87L3.61 2.87C3.01 5.74 2.93 6.10 2.91 6.34L2.79 6.34C2.77 6.10 2.70 5.74 2.16 2.87L0.38 2.87L0.38 2.94L1.46 7.71L0.14 13.41L0.14 13.47L1.92 13.47C2.60 10.07 2.70 9.59 2.72 9.21L2.84 9.21C2.86 9.59 2.98 10.07 3.63 13.47ZM8.83 9.41C8.85 9.55 8.85 9.65 8.85 9.81C8.85 10.61 8.82 11.05 8.74 11.42C8.68 11.68 8.51 11.82 8.19 11.82C7.77 11.82 7.63 11.72 7.56 11.47C7.45 11.09 7.41 10.64 7.41 8.06C7.41 5.53 7.45 5.11 7.56 4.75C7.63 4.49 7.77 4.40 8.13 4.40C8.48 4.40 8.60 4.49 8.68 4.68C8.78 4.89 8.83 5.38 8.83 6.01C8.83 6.38 8.83 6.55 8.82 6.75L10.46 6.75C10.49 6.50 10.49 6.34 10.49 5.89C10.49 4.66 10.33 3.81 10.00 3.33C9.70 2.88 9.20 2.69 8.13 2.69C6.96 2.69 6.47 2.91 6.15 3.54C5.88 4.06 5.70 4.56 5.70 8.08C5.70 11.35 5.82 12.17 6.13 12.78C6.44 13.43 7 13.65 8.19 13.65C10.12 13.65 10.51 12.59 10.51 10.36C10.51 9.90 10.51 9.66 10.47 9.41ZM16.76 9.41C16.77 9.55 16.77 9.65 16.77 9.81C16.77 10.61 16.74 11.05 16.66 11.42C16.60 11.68 16.44 11.82 16.11 11.82C15.69 11.82 15.55 11.72 15.48 11.47C15.37 11.09 15.33 10.64 15.33 8.06C15.33 5.53 15.37 5.11 15.48 4.75C15.55 4.49 15.69 4.40 16.06 4.40C16.41 4.40 16.52 4.49 16.60 4.68C16.70 4.89 16.76 5.38 16.76 6.01C16.76 6.38 16.76 6.55 16.74 6.75L18.38 6.75C18.41 6.50 18.41 6.34 18.41 5.89C18.41 4.66 18.26 3.81 17.92 3.33C17.63 2.88 17.12 2.69 16.06 2.69C14.88 2.69 14.39 2.91 14.07 3.54C13.80 4.06 13.62 4.56 13.62 8.08C13.62 11.35 13.75 12.17 14.06 12.78C14.36 13.43 14.92 13.65 16.11 13.65C18.05 13.65 18.44 12.59 18.44 10.36C18.44 9.90 18.44 9.66 18.40 9.41ZM23.06 13.47L23.06 11.63L20.99 11.63L20.99 2.87L19.26 2.87L19.26 13.47ZM28.45 13.47L27.43 2.87L24.53 2.87L23.44 13.47L25.16 13.47L25.37 10.81L26.46 10.81L26.67 13.47ZM26.39 9.13L25.44 9.13L25.86 4.61L25.98 4.61ZM33.12 6.16C33.19 5.91 33.22 5.59 33.22 5.00C33.22 3.28 32.80 2.69 31.04 2.69C29.34 2.69 28.81 3.26 28.81 5.26C28.81 7.20 28.91 7.52 29.37 7.94C29.90 8.43 30.95 8.79 31.44 9.28C31.72 9.56 31.75 9.67 31.75 10.44C31.75 11.77 31.58 11.90 31.02 11.90C30.49 11.90 30.34 11.70 30.34 10.54C30.34 10.28 30.34 10.08 30.37 9.93L28.92 9.93C28.87 10.18 28.83 10.57 28.83 11.02C28.83 13.20 29.44 13.65 31.00 13.65C32.77 13.65 33.35 13.09 33.35 10.47C33.35 8.57 33.18 8.29 32.51 7.83C32.06 7.52 31.11 7.13 30.67 6.75C30.39 6.50 30.38 6.41 30.38 5.52C30.38 4.51 30.52 4.37 31.04 4.37C31.64 4.37 31.72 4.69 31.72 5.50C31.72 5.84 31.71 6.01 31.70 6.16ZM38.23 6.16C38.30 5.91 38.33 5.59 38.33 5.00C38.33 3.28 37.91 2.69 36.15 2.69C34.45 2.69 33.92 3.26 33.92 5.26C33.92 7.20 34.02 7.52 34.48 7.94C35.01 8.43 36.06 8.79 36.55 9.28C36.83 9.56 36.86 9.67 36.86 10.44C36.86 11.77 36.69 11.90 36.13 11.90C35.60 11.90 35.45 11.70 35.45 10.54C35.45 10.28 35.45 10.08 35.48 9.93L34.03 9.93C33.98 10.18 33.94 10.57 33.94 11.02C33.94 13.20 34.55 13.65 36.11 13.65C37.88 13.65 38.46 13.09 38.46 10.47C38.46 8.57 38.29 8.29 37.62 7.83C37.17 7.52 36.22 7.13 35.78 6.75C35.50 6.50 35.49 6.41 35.49 5.52C35.49 4.51 35.63 4.37 36.15 4.37C36.75 4.37 36.83 4.69 36.83 5.50C36.83 5.84 36.82 6.01 36.81 6.16Z"></path></g><!----><!----></svg>