<svg data-v-423bf9ae="" xmlns="http://www.w3.org/2000/svg" viewBox="0 0 353 90" class="iconLeftSlogan"><!----><!----><!----><g data-v-423bf9ae="" id="c50aae40-bf73-4952-808d-f6b72a494c0a" fill="black" transform="matrix(4.569687698175228,0,0,4.569687698175228,107.07540182992574,-16.587966390498174)"><path d="M4.86 4.20L4.86 4.20Q5.81 4.20 6.54 4.59L6.54 4.59L6.54 4.59Q7.28 4.98 7.68 5.69L7.68 5.69L7.68 5.69Q8.08 6.40 8.08 7.32L8.08 7.32L8.08 7.32Q8.08 8.23 7.67 8.93L7.67 8.93L7.67 8.93Q7.25 9.63 6.50 10.01L6.50 10.01L6.50 10.01Q5.74 10.39 4.75 10.39L4.75 10.39L3.07 10.39L3.07 10.39Q2.97 10.39 2.97 10.49L2.97 10.49L2.97 13.75L2.97 13.75Q2.97 13.86 2.90 13.93L2.90 13.93L2.90 13.93Q2.83 14 2.72 14L2.72 14L0.90 14L0.90 14Q0.78 14 0.71 13.93L0.71 13.93L0.71 13.93Q0.64 13.86 0.64 13.75L0.64 13.75L0.64 4.45L0.64 4.45Q0.64 4.34 0.71 4.27L0.71 4.27L0.71 4.27Q0.78 4.20 0.90 4.20L0.90 4.20L4.86 4.20ZM4.48 8.54L4.48 8.54Q5.05 8.54 5.41 8.22L5.41 8.22L5.41 8.22Q5.77 7.90 5.77 7.38L5.77 7.38L5.77 7.38Q5.77 6.85 5.41 6.52L5.41 6.52L5.41 6.52Q5.05 6.19 4.48 6.19L4.48 6.19L3.07 6.19L3.07 6.19Q2.97 6.19 2.97 6.29L2.97 6.29L2.97 8.44L2.97 8.44Q2.97 8.54 3.07 8.54L3.07 8.54L4.48 8.54ZM10.23 6.29L10.23 6.29Q9.62 6.29 9.24 5.91L9.24 5.91L9.24 5.91Q8.86 5.54 8.86 4.94L8.86 4.94L8.86 4.94Q8.86 4.35 9.24 3.99L9.24 3.99L9.24 3.99Q9.62 3.63 10.23 3.63L10.23 3.63L10.23 3.63Q10.85 3.63 11.23 3.99L11.23 3.99L11.23 3.99Q11.61 4.35 11.61 4.94L11.61 4.94L11.61 4.94Q11.61 5.54 11.23 5.91L11.23 5.91L11.23 5.91Q10.85 6.29 10.23 6.29L10.23 6.29ZM9.32 14L9.32 14Q9.21 14 9.14 13.93L9.14 13.93L9.14 13.93Q9.07 13.86 9.07 13.75L9.07 13.75L9.07 7.01L9.07 7.01Q9.07 6.90 9.14 6.83L9.14 6.83L9.14 6.83Q9.21 6.76 9.32 6.76L9.32 6.76L11.14 6.76L11.14 6.76Q11.26 6.76 11.33 6.83L11.33 6.83L11.33 6.83Q11.40 6.90 11.40 7.01L11.40 7.01L11.40 13.75L11.40 13.75Q11.40 13.86 11.33 13.93L11.33 13.93L11.33 13.93Q11.26 14 11.14 14L11.14 14L9.32 14ZM16.76 6.65L16.76 6.65Q17.85 6.65 18.54 7.34L18.54 7.34L18.54 7.34Q19.24 8.04 19.24 9.23L19.24 9.23L19.24 13.75L19.24 13.75Q19.24 13.86 19.17 13.93L19.17 13.93L19.17 13.93Q19.10 14 18.98 14L18.98 14L17.16 14L17.16 14Q17.05 14 16.98 13.93L16.98 13.93L16.98 13.93Q16.91 13.86 16.91 13.75L16.91 13.75L16.91 9.73L16.91 9.73Q16.91 9.24 16.65 8.94L16.65 8.94L16.65 8.94Q16.39 8.64 15.96 8.64L15.96 8.64L15.96 8.64Q15.53 8.64 15.26 8.94L15.26 8.94L15.26 8.94Q14.99 9.24 14.99 9.73L14.99 9.73L14.99 13.75L14.99 13.75Q14.99 13.86 14.92 13.93L14.92 13.93L14.92 13.93Q14.85 14 14.74 14L14.74 14L12.92 14L12.92 14Q12.81 14 12.74 13.93L12.74 13.93L12.74 13.93Q12.67 13.86 12.67 13.75L12.67 13.75L12.67 7.01L12.67 7.01Q12.67 6.90 12.74 6.83L12.74 6.83L12.74 6.83Q12.81 6.76 12.92 6.76L12.92 6.76L14.74 6.76L14.74 6.76Q14.85 6.76 14.92 6.83L14.92 6.83L14.92 6.83Q14.99 6.90 14.99 7.01L14.99 7.01L14.99 7.41L14.99 7.41Q14.99 7.48 15.03 7.49L15.03 7.49L15.03 7.49Q15.06 7.50 15.09 7.45L15.09 7.45L15.09 7.45Q15.67 6.65 16.76 6.65L16.76 6.65ZM24.77 7.01L24.77 7.01Q24.77 6.90 24.84 6.83L24.84 6.83L24.84 6.83Q24.91 6.76 25.02 6.76L25.02 6.76L26.84 6.76L26.84 6.76Q26.95 6.76 27.02 6.83L27.02 6.83L27.02 6.83Q27.09 6.90 27.09 7.01L27.09 7.01L27.09 13.19L27.09 13.19Q27.09 15.11 25.98 15.93L25.98 15.93L25.98 15.93Q24.86 16.76 23.18 16.76L23.18 16.76L23.18 16.76Q22.65 16.76 21.94 16.66L21.94 16.66L21.94 16.66Q21.70 16.62 21.71 16.38L21.71 16.38L21.78 14.83L21.78 14.83Q21.80 14.56 22.08 14.60L22.08 14.60L22.08 14.60Q22.64 14.71 23.06 14.71L23.06 14.71L23.06 14.71Q23.86 14.71 24.31 14.35L24.31 14.35L24.31 14.35Q24.77 13.99 24.77 13.20L24.77 13.20L24.61 13.34L24.61 13.34Q24.12 13.80 23.21 13.80L23.21 13.80L23.21 13.80Q22.29 13.80 21.52 13.40L21.52 13.40L21.52 13.40Q20.75 12.99 20.41 11.97L20.41 11.97L20.41 11.97Q20.19 11.30 20.19 10.32L20.19 10.32L20.19 10.32Q20.19 9.24 20.45 8.55L20.45 8.55L20.45 8.55Q20.78 7.69 21.48 7.17L21.48 7.17L21.48 7.17Q22.19 6.65 23.13 6.65L23.13 6.65L23.13 6.65Q24.11 6.65 24.65 7.22L24.65 7.22L24.65 7.22Q24.70 7.28 24.73 7.27L24.73 7.27L24.73 7.27Q24.77 7.25 24.77 7.18L24.77 7.18L24.77 7.01ZM24.64 11.35L24.64 11.35Q24.77 11.03 24.77 10.30L24.77 10.30L24.77 10.30Q24.77 9.93 24.74 9.71L24.74 9.71L24.74 9.71Q24.71 9.49 24.63 9.30L24.63 9.30L24.63 9.30Q24.51 8.99 24.27 8.81L24.27 8.81L24.27 8.81Q24.02 8.64 23.67 8.64L23.67 8.64L23.67 8.64Q23.02 8.64 22.74 9.30L22.74 9.30L22.74 9.30Q22.53 9.69 22.53 10.33L22.53 10.33L22.53 10.33Q22.53 11.02 22.71 11.34L22.71 11.34L22.71 11.34Q22.83 11.63 23.09 11.82L23.09 11.82L23.09 11.82Q23.34 12.00 23.69 12.00L23.69 12.00L23.69 12.00Q24.40 12.00 24.64 11.35L24.64 11.35ZM32.44 7.01L32.44 7.01Q32.44 6.90 32.51 6.83L32.51 6.83L32.51 6.83Q32.58 6.76 32.69 6.76L32.69 6.76L34.51 6.76L34.51 6.76Q34.62 6.76 34.69 6.83L34.69 6.83L34.69 6.83Q34.76 6.90 34.76 7.01L34.76 7.01L34.76 13.75L34.76 13.75Q34.76 13.86 34.69 13.93L34.69 13.93L34.69 13.93Q34.62 14 34.51 14L34.51 14L32.69 14L32.69 14Q32.58 14 32.51 13.93L32.51 13.93L32.51 13.93Q32.44 13.86 32.44 13.75L32.44 13.75L32.44 13.40L32.44 13.40Q32.44 13.33 32.40 13.31L32.40 13.31L32.40 13.31Q32.37 13.30 32.33 13.36L32.33 13.36L32.33 13.36Q31.74 14.11 30.59 14.11L30.59 14.11L30.59 14.11Q29.53 14.11 28.87 13.44L28.87 13.44L28.87 13.44Q28.21 12.77 28.21 11.56L28.21 11.56L28.21 7.01L28.21 7.01Q28.21 6.90 28.28 6.83L28.28 6.83L28.28 6.83Q28.35 6.76 28.46 6.76L28.46 6.76L30.28 6.76L30.28 6.76Q30.39 6.76 30.46 6.83L30.46 6.83L30.46 6.83Q30.53 6.90 30.53 7.01L30.53 7.01L30.53 11.03L30.53 11.03Q30.53 11.52 30.79 11.82L30.79 11.82L30.79 11.82Q31.04 12.11 31.47 12.11L31.47 12.11L31.47 12.11Q31.86 12.11 32.12 11.87L32.12 11.87L32.12 11.87Q32.38 11.63 32.44 11.24L32.44 11.24L32.44 7.01ZM37.21 6.29L37.21 6.29Q36.60 6.29 36.22 5.91L36.22 5.91L36.22 5.91Q35.84 5.54 35.84 4.94L35.84 4.94L35.84 4.94Q35.84 4.35 36.22 3.99L36.22 3.99L36.22 3.99Q36.60 3.63 37.21 3.63L37.21 3.63L37.21 3.63Q37.83 3.63 38.21 3.99L38.21 3.99L38.21 3.99Q38.58 4.35 38.58 4.94L38.58 4.94L38.58 4.94Q38.58 5.54 38.21 5.91L38.21 5.91L38.21 5.91Q37.83 6.29 37.21 6.29L37.21 6.29ZM36.30 14L36.30 14Q36.19 14 36.12 13.93L36.12 13.93L36.12 13.93Q36.05 13.86 36.05 13.75L36.05 13.75L36.05 7.01L36.05 7.01Q36.05 6.90 36.12 6.83L36.12 6.83L36.12 6.83Q36.19 6.76 36.30 6.76L36.30 6.76L38.12 6.76L38.12 6.76Q38.23 6.76 38.30 6.83L38.30 6.83L38.30 6.83Q38.37 6.90 38.37 7.01L38.37 7.01L38.37 13.75L38.37 13.75Q38.37 13.86 38.30 13.93L38.30 13.93L38.30 13.93Q38.23 14 38.12 14L38.12 14L36.30 14ZM43.74 6.65L43.74 6.65Q44.83 6.65 45.52 7.34L45.52 7.34L45.52 7.34Q46.21 8.04 46.21 9.23L46.21 9.23L46.21 13.75L46.21 13.75Q46.21 13.86 46.14 13.93L46.14 13.93L46.14 13.93Q46.07 14 45.96 14L45.96 14L44.14 14L44.14 14Q44.03 14 43.96 13.93L43.96 13.93L43.96 13.93Q43.89 13.86 43.89 13.75L43.89 13.75L43.89 9.73L43.89 9.73Q43.89 9.24 43.63 8.94L43.63 8.94L43.63 8.94Q43.37 8.64 42.94 8.64L42.94 8.64L42.94 8.64Q42.50 8.64 42.24 8.94L42.24 8.94L42.24 8.94Q41.97 9.24 41.97 9.73L41.97 9.73L41.97 13.75L41.97 13.75Q41.97 13.86 41.90 13.93L41.90 13.93L41.90 13.93Q41.83 14 41.72 14L41.72 14L39.90 14L39.90 14Q39.79 14 39.72 13.93L39.72 13.93L39.72 13.93Q39.65 13.86 39.65 13.75L39.65 13.75L39.65 7.01L39.65 7.01Q39.65 6.90 39.72 6.83L39.72 6.83L39.72 6.83Q39.79 6.76 39.90 6.76L39.90 6.76L41.72 6.76L41.72 6.76Q41.83 6.76 41.90 6.83L41.90 6.83L41.90 6.83Q41.97 6.90 41.97 7.01L41.97 7.01L41.97 7.41L41.97 7.41Q41.97 7.48 42.01 7.49L42.01 7.49L42.01 7.49Q42.04 7.50 42.07 7.45L42.07 7.45L42.07 7.45Q42.64 6.65 43.74 6.65L43.74 6.65ZM50.43 14.11L50.43 14.11Q49.43 14.11 48.70 13.84L48.70 13.84L48.70 13.84Q47.96 13.57 47.57 13.07L47.57 13.07L47.57 13.07Q47.17 12.57 47.17 11.93L47.17 11.93L47.17 11.86L47.17 11.86Q47.17 11.75 47.24 11.68L47.24 11.68L47.24 11.68Q47.31 11.61 47.42 11.61L47.42 11.61L49.14 11.61L49.14 11.61Q49.39 11.61 49.39 11.69L49.39 11.69L49.39 11.77L49.39 11.77Q49.39 12.04 49.68 12.21L49.68 12.21L49.68 12.21Q49.97 12.39 50.41 12.39L50.41 12.39L50.41 12.39Q50.81 12.39 51.04 12.26L51.04 12.26L51.04 12.26Q51.28 12.12 51.28 11.90L51.28 11.90L51.28 11.90Q51.28 11.68 51.03 11.57L51.03 11.57L51.03 11.57Q50.78 11.47 50.23 11.37L50.23 11.37L50.23 11.37Q49.35 11.20 48.80 10.96L48.80 10.96L48.80 10.96Q48.10 10.67 47.68 10.22L47.68 10.22L47.68 10.22Q47.25 9.77 47.25 9.02L47.25 9.02L47.25 9.02Q47.25 7.92 48.10 7.29L48.10 7.29L48.10 7.29Q48.94 6.65 50.33 6.65L50.33 6.65L50.33 6.65Q51.27 6.65 51.98 6.95L51.98 6.95L51.98 6.95Q52.68 7.25 53.07 7.80L53.07 7.80L53.07 7.80Q53.47 8.34 53.47 9.06L53.47 9.06L53.47 9.06Q53.47 9.13 53.40 9.18L53.40 9.18L53.40 9.18Q53.33 9.23 53.21 9.23L53.21 9.23L51.55 9.23L51.55 9.23Q51.30 9.23 51.30 9.14L51.30 9.14L51.30 9.06L51.30 9.06Q51.30 8.79 51.04 8.62L51.04 8.62L51.04 8.62Q50.79 8.46 50.36 8.46L50.36 8.46L50.36 8.46Q49.97 8.46 49.72 8.59L49.72 8.59L49.72 8.59Q49.48 8.72 49.48 8.96L49.48 8.96L49.48 8.96Q49.48 9.20 49.74 9.30L49.74 9.30L49.74 9.30Q50.01 9.41 50.64 9.53L50.64 9.53L50.64 9.53Q51.49 9.70 51.79 9.80L51.79 9.80L51.79 9.80Q52.64 10.08 53.12 10.56L53.12 10.56L53.12 10.56Q53.61 11.03 53.61 11.83L53.61 11.83L53.61 11.83Q53.61 12.92 52.75 13.52L52.75 13.52L52.75 13.52Q51.88 14.11 50.43 14.11L50.43 14.11Z"></path></g><!----><g data-v-423bf9ae="" id="b43e4857-827f-4a82-b50b-2e901e7c10ed" transform="matrix(2.8125,0,0,2.8125,0,0)" stroke="none" fill="black"><path d="M0 32h32V0H0v32zM2.038 2.038h27.923v27.923H2.038V2.038z"></path><path d="M4.038 27.962h23.923V4.038H4.038v23.924zM21.049 8.25h3.402v3.402h-3.402V8.25zm0 6.049h3.402v3.402h-3.402v-3.402zm0 6.049h3.402v3.402h-3.402v-3.402zM14.299 8.25h3.402v3.402h-3.402V8.25zm0 6.049h3.402v3.402h-3.402v-3.402zm0 6.049h3.402v3.402h-3.402v-3.402zM7.549 8.25h3.402v3.402H7.549V8.25zm0 6.049h3.402v3.402H7.549v-3.402zm0 6.049h3.402v3.402H7.549v-3.402z"></path></g><!----><g data-v-423bf9ae="" id="5eb36a70-9f9d-434f-af2a-6c73b7e7e0e1" fill="black" transform="matrix(0.7188013910455628,0,0,0.7188013910455628,109.2524483594265,56.6000677451861)"><path d="M4.68 10.74L4.68 10.74L4.68 10.74Q5.54 9.45 6.39 8.37L6.39 8.37L6.39 8.37Q7.24 7.28 8.01 6.50L8.01 6.50L8.01 6.50Q8.78 5.71 9.42 5.28L9.42 5.28L9.42 5.28Q10.07 4.84 10.54 4.84L10.54 4.84L10.54 4.84Q10.72 4.84 10.94 4.98L10.94 4.98L10.94 4.98Q11.16 5.12 11.35 5.35L11.35 5.35L11.35 5.35Q11.54 5.57 11.66 5.83L11.66 5.83L11.66 5.83Q11.79 6.09 11.79 6.33L11.79 6.33L11.79 6.33Q10.92 6.61 10.09 7.06L10.09 7.06L10.09 7.06Q9.25 7.52 8.49 8.11L8.49 8.11L8.49 8.11Q7.73 8.71 7.04 9.44L7.04 9.44L7.04 9.44Q6.34 10.16 5.78 10.99L5.78 10.99L5.78 10.99Q6.01 11.56 6.33 12.21L6.33 12.21L6.33 12.21Q6.66 12.87 7.06 13.47L7.06 13.47L7.06 13.47Q7.45 14.08 7.90 14.60L7.90 14.60L7.90 14.60Q8.34 15.12 8.81 15.43L8.81 15.43L8.81 15.43Q8.74 15.58 8.57 15.72L8.57 15.72L8.57 15.72Q8.40 15.86 8.20 15.98L8.20 15.98L8.20 15.98Q8.01 16.10 7.79 16.17L7.79 16.17L7.79 16.17Q7.57 16.24 7.39 16.24L7.39 16.24L7.39 16.24Q7.03 16.24 6.72 15.90L6.72 15.90L6.72 15.90Q6.41 15.55 6.10 14.86L6.10 14.86L6.10 14.86Q5.78 14.17 5.44 13.14L5.44 13.14L5.44 13.14Q5.10 12.11 4.68 10.74ZM2.56 16.31L2.56 16.31L2.56 16.31Q2.03 16.18 1.68 15.87L1.68 15.87L1.68 15.87Q1.33 15.55 1.04 15.08L1.04 15.08L1.04 15.08Q1.16 14.81 1.34 14.38L1.34 14.38L1.34 14.38Q1.51 13.94 1.76 13.31L1.76 13.31L1.76 13.31Q2.02 12.67 2.37 11.78L2.37 11.78L2.37 11.78Q2.72 10.89 3.18 9.70L3.18 9.70L3.18 9.70Q3.47 8.95 3.66 8.43L3.66 8.43L3.66 8.43Q3.85 7.91 3.98 7.41L3.98 7.41L3.98 7.41Q4.12 6.92 4.24 6.31L4.24 6.31L4.24 6.31Q4.37 5.71 4.54 4.79L4.54 4.79L4.54 4.79Q5.12 4.90 5.61 5.31L5.61 5.31L5.61 5.31Q6.09 5.71 6.44 6.29L6.44 6.29L6.44 6.29Q6.29 6.48 6.08 6.88L6.08 6.88L6.08 6.88Q5.88 7.28 5.63 7.84L5.63 7.84L5.63 7.84Q5.38 8.40 5.07 9.09L5.07 9.09L5.07 9.09Q4.76 9.77 4.42 10.54L4.42 10.54L4.42 10.54Q3.67 12.22 3.23 13.62L3.23 13.62L3.23 13.62Q2.80 15.01 2.56 16.31ZM22.93 5.75L22.93 5.75L22.93 5.75Q22.32 6.58 21.81 7.57L21.81 7.57L21.81 7.57Q21.31 8.57 20.95 9.61L20.95 9.61L20.95 9.61Q20.59 10.65 20.41 11.67L20.41 11.67L20.41 11.67Q20.22 12.68 20.22 13.57L20.22 13.57L20.22 13.57Q20.22 14.66 20.54 15.15L20.54 15.15L20.54 15.15Q20.86 15.64 21.64 15.64L21.64 15.64L21.64 15.64Q22.55 15.64 23.24 15.00L23.24 15.00L23.24 15.00Q23.93 14.36 24.53 13.24L24.53 13.24L24.53 13.24Q24.92 12.52 25.20 11.65L25.20 11.65L25.20 11.65Q25.48 10.78 25.66 9.86L25.66 9.86L25.66 9.86Q25.83 8.95 25.91 8.02L25.91 8.02L25.91 8.02Q26.00 7.08 26.00 6.23L26.00 6.23L26.00 6.23Q26.00 5.68 25.98 5.43L25.98 5.43L25.98 5.43Q25.97 5.18 25.94 5.03L25.94 5.03L25.94 5.03Q25.98 5.03 26.15 5.05L26.15 5.05L26.15 5.05Q26.32 5.08 26.54 5.12L26.54 5.12L26.54 5.12Q26.75 5.17 26.97 5.24L26.97 5.24L26.97 5.24Q27.19 5.31 27.34 5.39L27.34 5.39L27.34 5.39Q27.27 6.45 27.08 7.59L27.08 7.59L27.08 7.59Q26.89 8.72 26.59 9.83L26.59 9.83L26.59 9.83Q26.28 10.93 25.87 11.96L25.87 11.96L25.87 11.96Q25.47 12.98 24.96 13.79L24.96 13.79L24.96 13.79Q24.22 14.99 23.30 15.67L23.30 15.67L23.30 15.67Q22.37 16.35 21.11 16.35L21.11 16.35L21.11 16.35Q19.82 16.35 19.11 15.60L19.11 15.60L19.11 15.60Q18.40 14.85 18.40 13.33L18.40 13.33L18.40 13.33Q18.40 12.45 18.59 11.33L18.59 11.33L18.59 11.33Q18.79 10.22 19.12 9.07L19.12 9.07L19.12 9.07Q19.45 7.91 19.88 6.81L19.88 6.81L19.88 6.81Q20.31 5.71 20.79 4.84L20.79 4.84L20.79 4.84Q21.03 4.86 21.35 4.94L21.35 4.94L21.35 4.94Q21.67 5.03 21.98 5.16L21.98 5.16L21.98 5.16Q22.29 5.29 22.55 5.45L22.55 5.45L22.55 5.45Q22.81 5.61 22.93 5.75ZM39.52 14.38L39.52 14.38L39.52 14.38Q39.87 14.98 39.87 15.54L39.87 15.54L39.87 15.54Q39.87 15.67 39.85 15.77L39.85 15.77L39.85 15.77Q39.83 15.88 39.80 15.99L39.80 15.99L39.80 15.99Q39.56 15.96 39.30 15.95L39.30 15.95L39.30 15.95Q39.05 15.93 38.77 15.93L38.77 15.93L38.77 15.93Q38.43 15.93 38.09 15.95L38.09 15.95L38.09 15.95Q37.74 15.97 37.32 16.02L37.32 16.02L37.32 16.02Q36.90 16.06 36.39 16.13L36.39 16.13L36.39 16.13Q35.87 16.20 35.18 16.31L35.18 16.31L35.18 16.31Q34.86 16.20 34.54 15.87L34.54 15.87L34.54 15.87Q34.22 15.54 33.94 15.08L33.94 15.08L33.94 15.08Q34.08 14.77 34.29 14.31L34.29 14.31L34.29 14.31Q34.50 13.86 34.78 13.21L34.78 13.21L34.78 13.21Q35.06 12.56 35.40 11.68L35.40 11.68L35.40 11.68Q35.74 10.81 36.13 9.66L36.13 9.66L36.13 9.66Q36.39 8.90 36.57 8.33L36.57 8.33L36.57 8.33Q36.75 7.76 36.90 7.22L36.90 7.22L36.90 7.22Q37.04 6.68 37.18 6.09L37.18 6.09L37.18 6.09Q37.32 5.50 37.49 4.73L37.49 4.73L37.49 4.73Q38.05 4.84 38.46 5.14L38.46 5.14L38.46 5.14Q38.88 5.45 39.26 6.01L39.26 6.01L39.26 6.01Q39.14 6.19 38.96 6.59L38.96 6.59L38.96 6.59Q38.78 7 38.53 7.58L38.53 7.58L38.53 7.58Q38.29 8.16 38.00 8.90L38.00 8.90L38.00 8.90Q37.70 9.63 37.38 10.47L37.38 10.47L37.38 10.47Q37.07 11.30 36.78 12.03L36.78 12.03L36.78 12.03Q36.48 12.75 36.25 13.34L36.25 13.34L36.25 13.34Q36.02 13.93 35.88 14.35L35.88 14.35L35.88 14.35Q35.74 14.77 35.74 14.98L35.74 14.98L35.74 14.98Q35.97 14.97 36.15 14.95L36.15 14.95L36.15 14.95Q36.33 14.94 36.53 14.90L36.53 14.90L36.53 14.90Q36.72 14.87 36.95 14.82L36.95 14.82L36.95 14.82Q37.18 14.77 37.51 14.69L37.51 14.69L37.51 14.69Q37.79 14.62 38.02 14.57L38.02 14.57L38.02 14.57Q38.26 14.52 38.49 14.48L38.49 14.48L38.49 14.48Q38.72 14.45 38.97 14.43L38.97 14.43L38.97 14.43Q39.21 14.41 39.52 14.38ZM48.48 14.38L48.48 14.38L48.48 14.38Q48.48 13.87 48.64 13.07L48.64 13.07L48.64 13.07Q48.80 12.26 49.06 11.33L49.06 11.33L49.06 11.33Q49.32 10.40 49.66 9.43L49.66 9.43L49.66 9.43Q49.99 8.46 50.34 7.60L50.34 7.60L50.34 7.60Q50.69 6.75 51.03 6.10L51.03 6.10L51.03 6.10Q51.37 5.46 51.63 5.18L51.63 5.18L51.63 5.18Q51.77 5.19 52.00 5.29L52.00 5.29L52.00 5.29Q52.23 5.38 52.47 5.50L52.47 5.50L52.47 5.50Q52.71 5.63 52.91 5.78L52.91 5.78L52.91 5.78Q53.10 5.92 53.16 6.05L53.16 6.05L53.16 6.05Q52.75 6.41 52.35 7.15L52.35 7.15L52.35 7.15Q51.95 7.88 51.58 8.82L51.58 8.82L51.58 8.82Q51.21 9.76 50.89 10.80L50.89 10.80L50.89 10.80Q50.57 11.84 50.33 12.82L50.33 12.82L50.33 12.82Q50.09 13.80 49.96 14.64L49.96 14.64L49.96 14.64Q49.83 15.48 49.83 16.00L49.83 16.00L49.83 16.00Q49.83 16.24 49.87 16.30L49.87 16.30L49.87 16.30Q49.56 16.28 49.42 16.19L49.42 16.19L49.42 16.19Q49.28 16.10 49.20 16.00L49.20 16.00L49.20 16.00Q49.13 15.89 49.06 15.79L49.06 15.79L49.06 15.79Q49.00 15.68 48.87 15.62L48.87 15.62L48.87 15.62Q48.78 15.58 48.71 15.43L48.71 15.43L48.71 15.43Q48.64 15.27 48.59 15.09L48.59 15.09L48.59 15.09Q48.54 14.90 48.51 14.70L48.51 14.70L48.51 14.70Q48.48 14.50 48.48 14.38ZM60.10 16.24L60.10 16.24L60.10 16.24Q59.43 16.04 59.17 15.85L59.17 15.85L59.17 15.85Q58.91 15.65 58.91 15.36L58.91 15.36L58.91 15.36Q58.91 15.13 59.04 14.73L59.04 14.73L59.04 14.73Q59.16 14.32 59.41 13.77L59.41 13.77L59.41 13.77Q59.65 13.22 60.00 12.54L60.00 12.54L60.00 12.54Q60.34 11.87 60.77 11.10L60.77 11.10L60.77 11.10Q60.41 11.09 60.12 11.08L60.12 11.08L60.12 11.08Q59.84 11.07 59.65 11.07L59.65 11.07L59.65 11.07Q59.74 10.86 60.13 10.71L60.13 10.71L60.13 10.71Q60.52 10.56 61.17 10.44L61.17 10.44L61.17 10.44Q61.71 9.53 62.33 8.71L62.33 8.71L62.33 8.71Q62.96 7.88 63.59 7.19L63.59 7.19L63.59 7.19Q64.22 6.50 64.85 5.97L64.85 5.97L64.85 5.97Q65.48 5.45 66.05 5.14L66.05 5.14L66.05 5.14Q66.07 5.04 66.07 4.97L66.07 4.97L66.07 4.97Q66.08 4.90 66.08 4.87L66.08 4.87L66.08 4.87Q66.28 4.87 66.60 4.97L66.60 4.97L66.60 4.97Q66.93 5.07 67.25 5.21L67.25 5.21L67.25 5.21Q67.56 5.35 67.81 5.49L67.81 5.49L67.81 5.49Q68.05 5.64 68.08 5.74L68.08 5.74L68.08 5.74Q67.62 6.55 67.17 8.17L67.17 8.17L67.17 8.17Q66.72 9.79 66.43 12.04L66.43 12.04L66.43 12.04Q66.36 12.60 66.31 13.31L66.31 13.31L66.31 13.31Q66.26 14.03 66.26 14.91L66.26 14.91L66.26 14.91Q66.26 15.22 66.26 15.54L66.26 15.54L66.26 15.54Q66.26 15.86 66.29 16.21L66.29 16.21L66.29 16.21Q66.26 16.23 66.23 16.23L66.23 16.23L66.23 16.23Q66.21 16.23 66.12 16.23L66.12 16.23L66.12 16.23Q65.93 16.23 65.67 16.16L65.67 16.16L65.67 16.16Q65.41 16.10 65.16 16.01L65.16 16.01L65.16 16.01Q64.92 15.92 64.74 15.81L64.74 15.81L64.74 15.81Q64.57 15.69 64.53 15.61L64.53 15.61L64.53 15.61Q64.51 15.43 64.51 15.25L64.51 15.25L64.51 15.25Q64.51 15.08 64.51 14.88L64.51 14.88L64.51 14.88Q64.51 14.01 64.57 13.12L64.57 13.12L64.57 13.12Q64.64 12.22 64.79 11.27L64.79 11.27L64.79 11.27Q64.60 11.26 64.27 11.23L64.27 11.23L64.27 11.23Q63.95 11.21 63.55 11.20L63.55 11.20L63.55 11.20Q63.15 11.19 62.70 11.16L62.70 11.16L62.70 11.16Q62.24 11.14 61.81 11.13L61.81 11.13L61.81 11.13Q61.47 11.76 61.18 12.38L61.18 12.38L61.18 12.38Q60.89 13.01 60.68 13.64L60.68 13.64L60.68 13.64Q60.44 14.31 60.29 14.98L60.29 14.98L60.29 14.98Q60.14 15.65 60.10 16.24ZM65.51 7.83L65.51 7.83L65.51 7.83Q65.56 7.63 65.64 7.29L65.64 7.29L65.64 7.29Q65.72 6.94 65.79 6.57L65.79 6.57L65.79 6.57Q65.44 6.69 65.01 7.03L65.01 7.03L65.01 7.03Q64.58 7.36 64.13 7.86L64.13 7.86L64.13 7.86Q63.67 8.36 63.20 8.98L63.20 8.98L63.20 8.98Q62.73 9.60 62.30 10.30L62.30 10.30L62.30 10.30Q63.48 10.21 64.97 10.18L64.97 10.18L64.97 10.18Q65.09 9.59 65.22 9.01L65.22 9.01L65.22 9.01Q65.35 8.43 65.51 7.83ZM80.92 14.36L80.92 14.36L80.92 14.36Q80.92 13.78 81.12 12.85L81.12 12.85L81.12 12.85Q81.31 11.93 81.63 10.88L81.63 10.88L81.63 10.88Q80.71 10.95 79.78 11.06L79.78 11.06L79.78 11.06Q78.85 11.17 78.16 11.19L78.16 11.19L78.16 11.19Q77.53 12.66 77.16 13.89L77.16 13.89L77.16 13.89Q76.79 15.13 76.58 16.31L76.58 16.31L76.58 16.31Q76.05 16.18 75.70 15.87L75.70 15.87L75.70 15.87Q75.35 15.55 75.05 15.08L75.05 15.08L75.05 15.08Q75.17 14.85 75.31 14.50L75.31 14.50L75.31 14.50Q75.46 14.15 75.66 13.66L75.66 13.66L75.66 13.66Q75.87 13.16 76.12 12.50L76.12 12.50L76.12 12.50Q76.38 11.83 76.72 10.95L76.72 10.95L76.72 10.95Q76.26 10.75 76.10 10.40L76.10 10.40L76.10 10.40Q76.17 10.35 76.42 10.28L76.42 10.28L76.42 10.28Q76.66 10.22 77.03 10.15L77.03 10.15L77.21 9.70L77.21 9.70Q77.50 8.95 77.69 8.43L77.69 8.43L77.69 8.43Q77.88 7.91 78.01 7.41L78.01 7.41L78.01 7.41Q78.15 6.92 78.27 6.31L78.27 6.31L78.27 6.31Q78.39 5.71 78.55 4.79L78.55 4.79L78.55 4.79Q79.14 4.90 79.62 5.31L79.62 5.31L79.62 5.31Q80.11 5.71 80.46 6.29L80.46 6.29L80.46 6.29Q80.33 6.45 80.15 6.79L80.15 6.79L80.15 6.79Q79.97 7.13 79.75 7.59L79.75 7.59L79.75 7.59Q79.53 8.06 79.28 8.64L79.28 8.64L79.28 8.64Q79.03 9.23 78.74 9.87L78.74 9.87L78.74 9.87Q79.60 9.76 80.49 9.66L80.49 9.66L80.49 9.66Q81.38 9.56 82.07 9.52L82.07 9.52L82.07 9.52Q82.32 8.79 82.59 8.10L82.59 8.10L82.59 8.10Q82.87 7.41 83.13 6.83L83.13 6.83L83.13 6.83Q83.40 6.26 83.64 5.82L83.64 5.82L83.64 5.82Q83.89 5.39 84.08 5.18L84.08 5.18L84.08 5.18Q84.22 5.19 84.45 5.29L84.45 5.29L84.45 5.29Q84.69 5.38 84.92 5.50L84.92 5.50L84.92 5.50Q85.16 5.63 85.36 5.78L85.36 5.78L85.36 5.78Q85.55 5.92 85.62 6.05L85.62 6.05L85.62 6.05Q85.37 6.29 85.12 6.66L85.12 6.66L85.12 6.66Q84.87 7.04 84.62 7.53L84.62 7.53L84.62 7.53Q84.38 8.02 84.14 8.60L84.14 8.60L84.14 8.60Q83.90 9.17 83.69 9.79L83.69 9.79L83.69 9.79Q83.97 10.04 83.97 10.42L83.97 10.42L83.97 10.42Q83.97 10.68 83.86 10.91L83.86 10.91L83.86 10.91Q83.73 10.88 83.61 10.87L83.61 10.87L83.61 10.87Q83.48 10.86 83.34 10.85L83.34 10.85L83.34 10.85Q83.10 11.61 82.91 12.35L82.91 12.35L82.91 12.35Q82.71 13.09 82.58 13.76L82.58 13.76L82.58 13.76Q82.45 14.43 82.37 14.99L82.37 14.99L82.37 14.99Q82.29 15.55 82.29 15.93L82.29 15.93L82.29 15.93Q82.29 16.07 82.30 16.16L82.30 16.16L82.30 16.16Q82.31 16.24 82.32 16.30L82.32 16.30L82.32 16.30Q82.01 16.28 81.87 16.19L81.87 16.19L81.87 16.19Q81.73 16.10 81.66 16.00L81.66 16.00L81.66 16.00Q81.59 15.89 81.54 15.79L81.54 15.79L81.54 15.79Q81.48 15.68 81.35 15.62L81.35 15.62L81.35 15.62Q81.26 15.58 81.17 15.43L81.17 15.43L81.17 15.43Q81.09 15.27 81.03 15.08L81.03 15.08L81.03 15.08Q80.98 14.88 80.95 14.69L80.95 14.69L80.95 14.69Q80.92 14.49 80.92 14.36ZM105.50 10.74L105.50 10.74L105.50 10.74Q106.37 9.45 107.22 8.37L107.22 8.37L107.22 8.37Q108.07 7.28 108.84 6.50L108.84 6.50L108.84 6.50Q109.61 5.71 110.25 5.28L110.25 5.28L110.25 5.28Q110.89 4.84 111.37 4.84L111.37 4.84L111.37 4.84Q111.55 4.84 111.77 4.98L111.77 4.98L111.77 4.98Q111.99 5.12 112.17 5.35L112.17 5.35L112.17 5.35Q112.36 5.57 112.49 5.83L112.49 5.83L112.49 5.83Q112.62 6.09 112.62 6.33L112.62 6.33L112.62 6.33Q111.75 6.61 110.91 7.06L110.91 7.06L110.91 7.06Q110.08 7.52 109.32 8.11L109.32 8.11L109.32 8.11Q108.56 8.71 107.86 9.44L107.86 9.44L107.86 9.44Q107.17 10.16 106.61 10.99L106.61 10.99L106.61 10.99Q106.83 11.56 107.16 12.21L107.16 12.21L107.16 12.21Q107.49 12.87 107.88 13.47L107.88 13.47L107.88 13.47Q108.28 14.08 108.72 14.60L108.72 14.60L108.72 14.60Q109.17 15.12 109.63 15.43L109.63 15.43L109.63 15.43Q109.56 15.58 109.40 15.72L109.40 15.72L109.40 15.72Q109.23 15.86 109.03 15.98L109.03 15.98L109.03 15.98Q108.84 16.10 108.62 16.17L108.62 16.17L108.62 16.17Q108.40 16.24 108.22 16.24L108.22 16.24L108.22 16.24Q107.86 16.24 107.55 15.90L107.55 15.90L107.55 15.90Q107.24 15.55 106.92 14.86L106.92 14.86L106.92 14.86Q106.61 14.17 106.27 13.14L106.27 13.14L106.27 13.14Q105.92 12.11 105.50 10.74ZM103.39 16.31L103.39 16.31L103.39 16.31Q102.86 16.18 102.51 15.87L102.51 15.87L102.51 15.87Q102.16 15.55 101.86 15.08L101.86 15.08L101.86 15.08Q101.99 14.81 102.16 14.38L102.16 14.38L102.16 14.38Q102.34 13.94 102.59 13.31L102.59 13.31L102.59 13.31Q102.84 12.67 103.19 11.78L103.19 11.78L103.19 11.78Q103.54 10.89 104.01 9.70L104.01 9.70L104.01 9.70Q104.30 8.95 104.49 8.43L104.49 8.43L104.49 8.43Q104.68 7.91 104.81 7.41L104.81 7.41L104.81 7.41Q104.94 6.92 105.07 6.31L105.07 6.31L105.07 6.31Q105.20 5.71 105.36 4.79L105.36 4.79L105.36 4.79Q105.95 4.90 106.43 5.31L106.43 5.31L106.43 5.31Q106.92 5.71 107.27 6.29L107.27 6.29L107.27 6.29Q107.11 6.48 106.91 6.88L106.91 6.88L106.91 6.88Q106.71 7.28 106.46 7.84L106.46 7.84L106.46 7.84Q106.20 8.40 105.90 9.09L105.90 9.09L105.90 9.09Q105.59 9.77 105.25 10.54L105.25 10.54L105.25 10.54Q104.50 12.22 104.06 13.62L104.06 13.62L104.06 13.62Q103.63 15.01 103.39 16.31ZM123.76 5.75L123.76 5.75L123.76 5.75Q123.14 6.58 122.64 7.57L122.64 7.57L122.64 7.57Q122.14 8.57 121.78 9.61L121.78 9.61L121.78 9.61Q121.42 10.65 121.23 11.67L121.23 11.67L121.23 11.67Q121.04 12.68 121.04 13.57L121.04 13.57L121.04 13.57Q121.04 14.66 121.37 15.15L121.37 15.15L121.37 15.15Q121.69 15.64 122.47 15.64L122.47 15.64L122.47 15.64Q123.38 15.64 124.07 15.00L124.07 15.00L124.07 15.00Q124.75 14.36 125.36 13.24L125.36 13.24L125.36 13.24Q125.75 12.52 126.03 11.65L126.03 11.65L126.03 11.65Q126.31 10.78 126.48 9.86L126.48 9.86L126.48 9.86Q126.66 8.95 126.74 8.02L126.74 8.02L126.74 8.02Q126.83 7.08 126.83 6.23L126.83 6.23L126.83 6.23Q126.83 5.68 126.81 5.43L126.81 5.43L126.81 5.43Q126.80 5.18 126.77 5.03L126.77 5.03L126.77 5.03Q126.81 5.03 126.98 5.05L126.98 5.05L126.98 5.05Q127.15 5.08 127.36 5.12L127.36 5.12L127.36 5.12Q127.58 5.17 127.80 5.24L127.80 5.24L127.80 5.24Q128.02 5.31 128.17 5.39L128.17 5.39L128.17 5.39Q128.10 6.45 127.91 7.59L127.91 7.59L127.91 7.59Q127.72 8.72 127.41 9.83L127.41 9.83L127.41 9.83Q127.11 10.93 126.70 11.96L126.70 11.96L126.70 11.96Q126.29 12.98 125.79 13.79L125.79 13.79L125.79 13.79Q125.05 14.99 124.12 15.67L124.12 15.67L124.12 15.67Q123.20 16.35 121.94 16.35L121.94 16.35L121.94 16.35Q120.65 16.35 119.94 15.60L119.94 15.60L119.94 15.60Q119.22 14.85 119.22 13.33L119.22 13.33L119.22 13.33Q119.22 12.45 119.42 11.33L119.42 11.33L119.42 11.33Q119.62 10.22 119.94 9.07L119.94 9.07L119.94 9.07Q120.27 7.91 120.71 6.81L120.71 6.81L120.71 6.81Q121.14 5.71 121.62 4.84L121.62 4.84L121.62 4.84Q121.86 4.86 122.18 4.94L122.18 4.94L122.18 4.94Q122.50 5.03 122.81 5.16L122.81 5.16L122.81 5.16Q123.12 5.29 123.37 5.45L123.37 5.45L123.37 5.45Q123.63 5.61 123.76 5.75ZM140.35 14.38L140.35 14.38L140.35 14.38Q140.70 14.98 140.70 15.54L140.70 15.54L140.70 15.54Q140.70 15.67 140.68 15.77L140.68 15.77L140.68 15.77Q140.66 15.88 140.63 15.99L140.63 15.99L140.63 15.99Q140.39 15.96 140.13 15.95L140.13 15.95L140.13 15.95Q139.87 15.93 139.59 15.93L139.59 15.93L139.59 15.93Q139.26 15.93 138.91 15.95L138.91 15.95L138.91 15.95Q138.57 15.97 138.15 16.02L138.15 16.02L138.15 16.02Q137.73 16.06 137.21 16.13L137.21 16.13L137.21 16.13Q136.70 16.20 136.01 16.31L136.01 16.31L136.01 16.31Q135.69 16.20 135.37 15.87L135.37 15.87L135.37 15.87Q135.04 15.54 134.76 15.08L134.76 15.08L134.76 15.08Q134.90 14.77 135.11 14.31L135.11 14.31L135.11 14.31Q135.32 13.86 135.60 13.21L135.60 13.21L135.60 13.21Q135.88 12.56 136.23 11.68L136.23 11.68L136.23 11.68Q136.57 10.81 136.96 9.66L136.96 9.66L136.96 9.66Q137.21 8.90 137.40 8.33L137.40 8.33L137.40 8.33Q137.58 7.76 137.72 7.22L137.72 7.22L137.72 7.22Q137.87 6.68 138.01 6.09L138.01 6.09L138.01 6.09Q138.15 5.50 138.32 4.73L138.32 4.73L138.32 4.73Q138.88 4.84 139.29 5.14L139.29 5.14L139.29 5.14Q139.71 5.45 140.08 6.01L140.08 6.01L140.08 6.01Q139.97 6.19 139.79 6.59L139.79 6.59L139.79 6.59Q139.61 7 139.36 7.58L139.36 7.58L139.36 7.58Q139.12 8.16 138.82 8.90L138.82 8.90L138.82 8.90Q138.53 9.63 138.21 10.47L138.21 10.47L138.21 10.47Q137.90 11.30 137.61 12.03L137.61 12.03L137.61 12.03Q137.31 12.75 137.08 13.34L137.08 13.34L137.08 13.34Q136.85 13.93 136.71 14.35L136.71 14.35L136.71 14.35Q136.57 14.77 136.57 14.98L136.57 14.98L136.57 14.98Q136.79 14.97 136.98 14.95L136.98 14.95L136.98 14.95Q137.16 14.94 137.35 14.90L137.35 14.90L137.35 14.90Q137.55 14.87 137.78 14.82L137.78 14.82L137.78 14.82Q138.01 14.77 138.33 14.69L138.33 14.69L138.33 14.69Q138.61 14.62 138.85 14.57L138.85 14.57L138.85 14.57Q139.09 14.52 139.32 14.48L139.32 14.48L139.32 14.48Q139.55 14.45 139.80 14.43L139.80 14.43L139.80 14.43Q140.04 14.41 140.35 14.38ZM149.31 14.38L149.31 14.38L149.31 14.38Q149.31 13.87 149.47 13.07L149.47 13.07L149.47 13.07Q149.63 12.26 149.89 11.33L149.89 11.33L149.89 11.33Q150.15 10.40 150.49 9.43L150.49 9.43L150.49 9.43Q150.82 8.46 151.17 7.60L151.17 7.60L151.17 7.60Q151.52 6.75 151.86 6.10L151.86 6.10L151.86 6.10Q152.19 5.46 152.46 5.18L152.46 5.18L152.46 5.18Q152.60 5.19 152.83 5.29L152.83 5.29L152.83 5.29Q153.06 5.38 153.30 5.50L153.30 5.50L153.30 5.50Q153.54 5.63 153.73 5.78L153.73 5.78L153.73 5.78Q153.93 5.92 153.99 6.05L153.99 6.05L153.99 6.05Q153.58 6.41 153.18 7.15L153.18 7.15L153.18 7.15Q152.78 7.88 152.41 8.82L152.41 8.82L152.41 8.82Q152.04 9.76 151.72 10.80L151.72 10.80L151.72 10.80Q151.40 11.84 151.16 12.82L151.16 12.82L151.16 12.82Q150.92 13.80 150.79 14.64L150.79 14.64L150.79 14.64Q150.65 15.48 150.65 16.00L150.65 16.00L150.65 16.00Q150.65 16.24 150.70 16.30L150.70 16.30L150.70 16.30Q150.39 16.28 150.25 16.19L150.25 16.19L150.25 16.19Q150.11 16.10 150.03 16.00L150.03 16.00L150.03 16.00Q149.95 15.89 149.89 15.79L149.89 15.79L149.89 15.79Q149.83 15.68 149.70 15.62L149.70 15.62L149.70 15.62Q149.60 15.58 149.53 15.43L149.53 15.43L149.53 15.43Q149.46 15.27 149.41 15.09L149.41 15.09L149.41 15.09Q149.37 14.90 149.34 14.70L149.34 14.70L149.34 14.70Q149.31 14.50 149.31 14.38ZM160.93 16.24L160.93 16.24L160.93 16.24Q160.26 16.04 160.00 15.85L160.00 15.85L160.00 15.85Q159.74 15.65 159.74 15.36L159.74 15.36L159.74 15.36Q159.74 15.13 159.87 14.73L159.87 14.73L159.87 14.73Q159.99 14.32 160.24 13.77L160.24 13.77L160.24 13.77Q160.48 13.22 160.82 12.54L160.82 12.54L160.82 12.54Q161.17 11.87 161.60 11.10L161.60 11.10L161.60 11.10Q161.24 11.09 160.95 11.08L160.95 11.08L160.95 11.08Q160.66 11.07 160.48 11.07L160.48 11.07L160.48 11.07Q160.57 10.86 160.96 10.71L160.96 10.71L160.96 10.71Q161.35 10.56 161.99 10.44L161.99 10.44L161.99 10.44Q162.54 9.53 163.16 8.71L163.16 8.71L163.16 8.71Q163.79 7.88 164.42 7.19L164.42 7.19L164.42 7.19Q165.05 6.50 165.68 5.97L165.68 5.97L165.68 5.97Q166.31 5.45 166.88 5.14L166.88 5.14L166.88 5.14Q166.89 5.04 166.90 4.97L166.90 4.97L166.90 4.97Q166.91 4.90 166.91 4.87L166.91 4.87L166.91 4.87Q167.10 4.87 167.43 4.97L167.43 4.97L167.43 4.97Q167.76 5.07 168.08 5.21L168.08 5.21L168.08 5.21Q168.39 5.35 168.64 5.49L168.64 5.49L168.64 5.49Q168.88 5.64 168.91 5.74L168.91 5.74L168.91 5.74Q168.45 6.55 168.00 8.17L168.00 8.17L168.00 8.17Q167.55 9.79 167.26 12.04L167.26 12.04L167.26 12.04Q167.19 12.60 167.14 13.31L167.14 13.31L167.14 13.31Q167.09 14.03 167.09 14.91L167.09 14.91L167.09 14.91Q167.09 15.22 167.09 15.54L167.09 15.54L167.09 15.54Q167.09 15.86 167.12 16.21L167.12 16.21L167.12 16.21Q167.09 16.23 167.06 16.23L167.06 16.23L167.06 16.23Q167.03 16.23 166.95 16.23L166.95 16.23L166.95 16.23Q166.75 16.23 166.49 16.16L166.49 16.16L166.49 16.16Q166.24 16.10 165.99 16.01L165.99 16.01L165.99 16.01Q165.75 15.92 165.57 15.81L165.57 15.81L165.57 15.81Q165.40 15.69 165.35 15.61L165.35 15.61L165.35 15.61Q165.34 15.43 165.34 15.25L165.34 15.25L165.34 15.25Q165.34 15.08 165.34 14.88L165.34 14.88L165.34 14.88Q165.34 14.01 165.40 13.12L165.40 13.12L165.40 13.12Q165.47 12.22 165.62 11.27L165.62 11.27L165.62 11.27Q165.42 11.26 165.10 11.23L165.10 11.23L165.10 11.23Q164.78 11.21 164.38 11.20L164.38 11.20L164.38 11.20Q163.98 11.19 163.53 11.16L163.53 11.16L163.53 11.16Q163.07 11.14 162.64 11.13L162.64 11.13L162.64 11.13Q162.30 11.76 162.01 12.38L162.01 12.38L162.01 12.38Q161.71 13.01 161.50 13.64L161.50 13.64L161.50 13.64Q161.27 14.31 161.12 14.98L161.12 14.98L161.12 14.98Q160.97 15.65 160.93 16.24ZM166.33 7.83L166.33 7.83L166.33 7.83Q166.39 7.63 166.47 7.29L166.47 7.29L166.47 7.29Q166.54 6.94 166.61 6.57L166.61 6.57L166.61 6.57Q166.26 6.69 165.84 7.03L165.84 7.03L165.84 7.03Q165.41 7.36 164.95 7.86L164.95 7.86L164.95 7.86Q164.50 8.36 164.03 8.98L164.03 8.98L164.03 8.98Q163.56 9.60 163.13 10.30L163.13 10.30L163.13 10.30Q164.30 10.21 165.80 10.18L165.80 10.18L165.80 10.18Q165.91 9.59 166.05 9.01L166.05 9.01L166.05 9.01Q166.18 8.43 166.33 7.83ZM181.75 14.36L181.75 14.36L181.75 14.36Q181.75 13.78 181.94 12.85L181.94 12.85L181.94 12.85Q182.14 11.93 182.46 10.88L182.46 10.88L182.46 10.88Q181.54 10.95 180.61 11.06L180.61 11.06L180.61 11.06Q179.68 11.17 178.99 11.19L178.99 11.19L178.99 11.19Q178.36 12.66 177.99 13.89L177.99 13.89L177.99 13.89Q177.62 15.13 177.41 16.31L177.41 16.31L177.41 16.31Q176.88 16.18 176.53 15.87L176.53 15.87L176.53 15.87Q176.18 15.55 175.88 15.08L175.88 15.08L175.88 15.08Q175.99 14.85 176.14 14.50L176.14 14.50L176.14 14.50Q176.29 14.15 176.49 13.66L176.49 13.66L176.49 13.66Q176.69 13.16 176.95 12.50L176.95 12.50L176.95 12.50Q177.21 11.83 177.55 10.95L177.55 10.95L177.55 10.95Q177.09 10.75 176.93 10.40L176.93 10.40L176.93 10.40Q177.00 10.35 177.25 10.28L177.25 10.28L177.25 10.28Q177.49 10.22 177.86 10.15L177.86 10.15L178.04 9.70L178.04 9.70Q178.33 8.95 178.52 8.43L178.52 8.43L178.52 8.43Q178.71 7.91 178.84 7.41L178.84 7.41L178.84 7.41Q178.98 6.92 179.09 6.31L179.09 6.31L179.09 6.31Q179.21 5.71 179.38 4.79L179.38 4.79L179.38 4.79Q179.97 4.90 180.45 5.31L180.45 5.31L180.45 5.31Q180.94 5.71 181.29 6.29L181.29 6.29L181.29 6.29Q181.16 6.45 180.98 6.79L180.98 6.79L180.98 6.79Q180.80 7.13 180.58 7.59L180.58 7.59L180.58 7.59Q180.36 8.06 180.11 8.64L180.11 8.64L180.11 8.64Q179.86 9.23 179.56 9.87L179.56 9.87L179.56 9.87Q180.43 9.76 181.32 9.66L181.32 9.66L181.32 9.66Q182.21 9.56 182.90 9.52L182.90 9.52L182.90 9.52Q183.15 8.79 183.42 8.10L183.42 8.10L183.42 8.10Q183.69 7.41 183.96 6.83L183.96 6.83L183.96 6.83Q184.23 6.26 184.47 5.82L184.47 5.82L184.47 5.82Q184.72 5.39 184.91 5.18L184.91 5.18L184.91 5.18Q185.05 5.19 185.28 5.29L185.28 5.29L185.28 5.29Q185.51 5.38 185.75 5.50L185.75 5.50L185.75 5.50Q185.99 5.63 186.19 5.78L186.19 5.78L186.19 5.78Q186.38 5.92 186.45 6.05L186.45 6.05L186.45 6.05Q186.20 6.29 185.95 6.66L185.95 6.66L185.95 6.66Q185.70 7.04 185.45 7.53L185.45 7.53L185.45 7.53Q185.21 8.02 184.97 8.60L184.97 8.60L184.97 8.60Q184.73 9.17 184.52 9.79L184.52 9.79L184.52 9.79Q184.80 10.04 184.80 10.42L184.80 10.42L184.80 10.42Q184.80 10.68 184.69 10.91L184.69 10.91L184.69 10.91Q184.56 10.88 184.44 10.87L184.44 10.87L184.44 10.87Q184.31 10.86 184.17 10.85L184.17 10.85L184.17 10.85Q183.93 11.61 183.74 12.35L183.74 12.35L183.74 12.35Q183.54 13.09 183.41 13.76L183.41 13.76L183.41 13.76Q183.27 14.43 183.20 14.99L183.20 14.99L183.20 14.99Q183.12 15.55 183.12 15.93L183.12 15.93L183.12 15.93Q183.12 16.07 183.13 16.16L183.13 16.16L183.13 16.16Q183.13 16.24 183.15 16.30L183.15 16.30L183.15 16.30Q182.84 16.28 182.70 16.19L182.70 16.19L182.70 16.19Q182.56 16.10 182.49 16.00L182.49 16.00L182.49 16.00Q182.42 15.89 182.36 15.79L182.36 15.79L182.36 15.79Q182.31 15.68 182.18 15.62L182.18 15.62L182.18 15.62Q182.08 15.58 182.00 15.43L182.00 15.43L182.00 15.43Q181.92 15.27 181.86 15.08L181.86 15.08L181.86 15.08Q181.80 14.88 181.78 14.69L181.78 14.69L181.78 14.69Q181.75 14.49 181.75 14.36ZM205.84 6.69L205.84 6.69L205.84 6.69Q205.28 6.69 204.98 6.38L204.98 6.38L204.98 6.38Q204.68 6.06 204.68 5.61L204.68 5.61L204.68 5.61Q204.68 5.50 204.71 5.35L204.71 5.35L204.71 5.35Q204.75 5.19 204.81 5.08L204.81 5.08L204.81 5.08Q204.99 5.17 205.34 5.20L205.34 5.20L205.34 5.20Q205.70 5.24 206.18 5.24L206.18 5.24L206.18 5.24Q206.89 5.24 207.79 5.17L207.79 5.17L207.79 5.17Q208.70 5.11 209.52 5.04L209.52 5.04L209.52 5.04Q210.35 4.97 210.98 4.91L210.98 4.91L210.98 4.91Q211.61 4.84 211.79 4.84L211.79 4.84L211.79 4.84Q212.31 4.84 212.54 5.23L212.54 5.23L212.54 5.23Q212.77 5.61 212.88 6.26L212.88 6.26L212.88 6.26Q212.52 6.23 212.16 6.21L212.16 6.21L212.16 6.21Q211.81 6.19 211.55 6.19L211.55 6.19L211.55 6.19Q211.11 6.19 210.65 6.22L210.65 6.22L210.65 6.22Q210.20 6.24 209.73 6.30L209.73 6.30L209.73 6.30Q209.54 6.71 209.30 7.26L209.30 7.26L209.30 7.26Q209.06 7.81 208.83 8.41L208.83 8.41L208.83 8.41Q208.60 9.02 208.39 9.61L208.39 9.61L208.39 9.61Q208.18 10.21 208.03 10.68L208.03 10.68L208.03 10.68Q207.72 11.61 207.49 12.39L207.49 12.39L207.49 12.39Q207.26 13.17 207.08 13.85L207.08 13.85L207.08 13.85Q206.91 14.53 206.78 15.15L206.78 15.15L206.78 15.15Q206.65 15.76 206.56 16.35L206.56 16.35L206.56 16.35Q205.62 16.21 204.99 15.18L204.99 15.18L204.99 15.18Q205.10 14.74 205.26 14.23L205.26 14.23L205.26 14.23Q205.42 13.72 205.64 13.07L205.64 13.07L205.64 13.07Q205.86 12.42 206.15 11.59L206.15 11.59L206.15 11.59Q206.44 10.77 206.82 9.72L206.82 9.72L206.82 9.72Q206.96 9.32 207.12 8.90L207.12 8.90L207.12 8.90Q207.27 8.47 207.42 8.05L207.42 8.05L207.42 8.05Q207.56 7.63 207.68 7.24L207.68 7.24L207.68 7.24Q207.80 6.85 207.89 6.52L207.89 6.52L207.89 6.52Q207.30 6.59 206.77 6.64L206.77 6.64L206.77 6.64Q206.25 6.69 205.84 6.69ZM218.72 14.38L218.72 14.38L218.72 14.38Q218.72 13.87 218.88 13.07L218.88 13.07L218.88 13.07Q219.04 12.26 219.30 11.33L219.30 11.33L219.30 11.33Q219.56 10.40 219.90 9.43L219.90 9.43L219.90 9.43Q220.23 8.46 220.58 7.60L220.58 7.60L220.58 7.60Q220.93 6.75 221.27 6.10L221.27 6.10L221.27 6.10Q221.61 5.46 221.87 5.18L221.87 5.18L221.87 5.18Q222.01 5.19 222.24 5.29L222.24 5.29L222.24 5.29Q222.47 5.38 222.71 5.50L222.71 5.50L222.71 5.50Q222.95 5.63 223.15 5.78L223.15 5.78L223.15 5.78Q223.34 5.92 223.40 6.05L223.40 6.05L223.40 6.05Q222.99 6.41 222.59 7.15L222.59 7.15L222.59 7.15Q222.19 7.88 221.82 8.82L221.82 8.82L221.82 8.82Q221.45 9.76 221.13 10.80L221.13 10.80L221.13 10.80Q220.81 11.84 220.57 12.82L220.57 12.82L220.57 12.82Q220.33 13.80 220.20 14.64L220.20 14.64L220.20 14.64Q220.07 15.48 220.07 16.00L220.07 16.00L220.07 16.00Q220.07 16.24 220.11 16.30L220.11 16.30L220.11 16.30Q219.80 16.28 219.66 16.19L219.66 16.19L219.66 16.19Q219.52 16.10 219.44 16.00L219.44 16.00L219.44 16.00Q219.37 15.89 219.30 15.79L219.30 15.79L219.30 15.79Q219.24 15.68 219.11 15.62L219.11 15.62L219.11 15.62Q219.02 15.58 218.95 15.43L218.95 15.43L218.95 15.43Q218.88 15.27 218.83 15.09L218.83 15.09L218.83 15.09Q218.78 14.90 218.75 14.70L218.75 14.70L218.75 14.70Q218.72 14.50 218.72 14.38ZM239.25 7.63L239.25 7.63L239.25 7.63Q239.25 8.40 238.86 9.10L238.86 9.10L238.86 9.10Q238.48 9.80 237.82 10.32L237.82 10.32L237.82 10.32Q237.17 10.85 236.30 11.16L236.30 11.16L236.30 11.16Q235.42 11.47 234.44 11.47L234.44 11.47L234.44 11.47Q234.09 11.47 233.89 11.38L233.89 11.38L233.89 11.38Q233.69 11.28 233.44 11.02L233.44 11.02L233.44 11.02Q232.74 12.54 232.29 13.82L232.29 13.82L232.29 13.82Q231.85 15.11 231.60 16.31L231.60 16.31L231.60 16.31Q231.07 16.18 230.73 15.87L230.73 15.87L230.73 15.87Q230.40 15.55 230.12 15.08L230.12 15.08L230.12 15.08Q230.26 14.81 230.45 14.38L230.45 14.38L230.45 14.38Q230.65 13.94 230.93 13.31L230.93 13.31L230.93 13.31Q231.21 12.67 231.58 11.78L231.58 11.78L231.58 11.78Q231.95 10.89 232.46 9.70L232.46 9.70L232.46 9.70Q232.68 9.16 232.85 8.75L232.85 8.75L232.85 8.75Q233.02 8.34 233.14 7.99L233.14 7.99L233.14 7.99Q233.27 7.63 233.37 7.28L233.37 7.28L233.37 7.28Q233.48 6.93 233.59 6.51L233.59 6.51L233.59 6.51Q232.93 6.72 232.38 7L232.38 7L232.38 7Q231.83 7.28 231.46 7.59L231.46 7.59L231.46 7.59Q231.34 7.50 231.20 7.34L231.20 7.34L231.20 7.34Q231.07 7.17 230.96 6.96L230.96 6.96L230.96 6.96Q230.85 6.76 230.76 6.55L230.76 6.55L230.76 6.55Q230.68 6.34 230.66 6.17L230.66 6.17L230.66 6.17Q231.07 5.89 231.67 5.66L231.67 5.66L231.67 5.66Q232.27 5.42 232.96 5.24L232.96 5.24L232.96 5.24Q233.65 5.07 234.38 4.97L234.38 4.97L234.38 4.97Q235.12 4.87 235.79 4.87L235.79 4.87L235.79 4.87Q236.59 4.87 237.23 5.07L237.23 5.07L237.23 5.07Q237.87 5.28 238.32 5.64L238.32 5.64L238.32 5.64Q238.77 6.01 239.01 6.51L239.01 6.51L239.01 6.51Q239.25 7.01 239.25 7.63ZM236.75 5.95L236.75 5.95L236.75 5.95Q236.22 5.95 235.66 6.03L235.66 6.03L235.83 6.29L235.83 6.29Q235.69 6.47 235.48 6.83L235.48 6.83L235.48 6.83Q235.27 7.20 235.02 7.71L235.02 7.71L235.02 7.71Q234.77 8.22 234.46 8.85L234.46 8.85L234.46 8.85Q234.16 9.48 233.83 10.18L233.83 10.18L233.83 10.18Q234.92 10.18 235.82 9.97L235.82 9.97L235.82 9.97Q236.71 9.77 237.35 9.41L237.35 9.41L237.35 9.41Q237.99 9.06 238.34 8.58L238.34 8.58L238.34 8.58Q238.70 8.11 238.70 7.56L238.70 7.56L238.70 7.56Q238.70 6.83 238.21 6.39L238.21 6.39L238.21 6.39Q237.72 5.95 236.75 5.95ZM251.48 9.21L251.48 9.21L251.48 9.21Q251.94 9.21 252.20 9.46L252.20 9.46L252.20 9.46Q252.46 9.72 252.46 10.16L252.46 10.16L252.46 10.16Q252.46 10.28 252.44 10.39L252.44 10.39L252.44 10.39Q252.42 10.51 252.39 10.60L252.39 10.60L252.39 10.60Q252.21 10.57 251.99 10.55L251.99 10.55L251.99 10.55Q251.76 10.53 251.45 10.53L251.45 10.53L251.45 10.53Q250.85 10.53 250.24 10.63L250.24 10.63L250.24 10.63Q249.62 10.74 249.06 10.81L249.06 10.81L249.06 10.81Q248.74 11.55 248.47 12.24L248.47 12.24L248.47 12.24Q248.21 12.94 248.02 13.51L248.02 13.51L248.02 13.51Q247.83 14.08 247.72 14.50L247.72 14.50L247.72 14.50Q247.62 14.92 247.60 15.13L247.60 15.13L247.60 15.13Q248.74 14.90 249.89 14.73L249.89 14.73L249.89 14.73Q251.05 14.56 252.32 14.48L252.32 14.48L252.32 14.48Q252.48 14.71 252.58 14.99L252.58 14.99L252.58 14.99Q252.69 15.27 252.69 15.60L252.69 15.60L252.69 15.60Q252.69 15.68 252.69 15.78L252.69 15.78L252.69 15.78Q252.69 15.88 252.66 15.97L252.66 15.97L252.66 15.97Q252.27 15.96 251.83 15.95L251.83 15.95L251.83 15.95Q251.40 15.95 250.70 15.95L250.70 15.95L250.70 15.95Q250.24 15.95 249.82 15.97L249.82 15.97L249.82 15.97Q249.41 15.99 248.99 16.03L248.99 16.03L248.99 16.03Q248.57 16.07 248.10 16.14L248.10 16.14L248.10 16.14Q247.63 16.21 247.04 16.31L247.04 16.31L247.04 16.31Q246.40 16.06 245.80 15.08L245.80 15.08L245.80 15.08Q246.04 14.57 246.46 13.54L246.46 13.54L246.46 13.54Q246.89 12.52 247.55 10.79L247.55 10.79L247.55 10.79Q246.92 10.60 246.72 10.09L246.72 10.09L246.72 10.09Q246.79 10.02 247.13 9.92L247.13 9.92L247.13 9.92Q247.46 9.81 247.95 9.70L247.95 9.70L247.95 9.70Q248.16 9.16 248.31 8.75L248.31 8.75L248.31 8.75Q248.46 8.34 248.57 7.99L248.57 7.99L248.57 7.99Q248.68 7.63 248.77 7.29L248.77 7.29L248.77 7.29Q248.86 6.94 248.95 6.54L248.95 6.54L248.95 6.54Q248.46 6.51 248.18 6.27L248.18 6.27L248.18 6.27Q247.90 6.02 247.90 5.63L247.90 5.63L247.90 5.63Q247.90 5.52 247.93 5.36L247.93 5.36L247.93 5.36Q247.97 5.21 248.01 5.10L248.01 5.10L248.01 5.10Q248.29 5.14 248.55 5.15L248.55 5.15L248.55 5.15Q248.81 5.17 249.23 5.17L249.23 5.17L249.23 5.17Q250.11 5.17 250.88 5.12L250.88 5.12L250.88 5.12Q251.65 5.07 252.27 5.01L252.27 5.01L252.27 5.01Q252.90 4.96 253.34 4.91L253.34 4.91L253.34 4.91Q253.79 4.86 254.03 4.86L254.03 4.86L254.03 4.86Q254.35 4.86 254.60 5.19L254.60 5.19L254.60 5.19Q254.86 5.53 254.98 6.15L254.98 6.15L254.98 6.15Q254.55 6.10 254.27 6.09L254.27 6.09L254.27 6.09Q254.00 6.08 253.79 6.08L253.79 6.08L253.79 6.08Q253.02 6.08 252.38 6.15L252.38 6.15L252.38 6.15Q251.75 6.23 251.16 6.31L251.16 6.31L251.16 6.31Q251.08 6.44 250.97 6.64L250.97 6.64L250.97 6.64Q250.87 6.83 250.70 7.18L250.70 7.18L250.70 7.18Q250.53 7.53 250.28 8.06L250.28 8.06L250.28 8.06Q250.04 8.60 249.69 9.39L249.69 9.39L249.69 9.39Q250.22 9.31 250.69 9.26L250.69 9.26L250.69 9.26Q251.16 9.21 251.48 9.21ZM270.35 5.74L270.35 5.74L270.35 5.74Q270.40 5.98 270.42 6.07L270.42 6.07L270.42 6.07Q270.44 6.16 270.44 6.31L270.44 6.31L270.44 6.31Q270.44 6.78 270.23 7.18L270.23 7.18L270.23 7.18Q270.03 7.57 269.68 7.74L269.68 7.74L269.68 7.74Q269.40 7.36 269.00 7.09L269.00 7.09L269.00 7.09Q268.59 6.82 268.11 6.64L268.11 6.64L268.11 6.64Q267.62 6.47 267.11 6.38L267.11 6.38L267.11 6.38Q266.59 6.30 266.10 6.30L266.10 6.30L266.10 6.30Q265.61 6.30 265.18 6.38L265.18 6.38L265.18 6.38Q264.75 6.45 264.42 6.59L264.42 6.59L264.42 6.59Q264.10 6.72 263.91 6.92L263.91 6.92L263.91 6.92Q263.72 7.11 263.72 7.36L263.72 7.36L263.72 7.36Q263.76 7.67 264.10 7.99L264.10 7.99L264.10 7.99Q264.43 8.30 264.92 8.60L264.92 8.60L264.92 8.60Q265.41 8.90 266.01 9.20L266.01 9.20L266.01 9.20Q266.60 9.49 267.18 9.76L267.18 9.76L267.18 9.76Q267.89 10.09 268.41 10.38L268.41 10.38L268.41 10.38Q268.93 10.67 269.26 11.01L269.26 11.01L269.26 11.01Q269.60 11.35 269.77 11.79L269.77 11.79L269.77 11.79Q269.93 12.22 269.93 12.84L269.93 12.84L269.93 12.84Q269.93 13.55 269.70 14.18L269.70 14.18L269.70 14.18Q269.46 14.80 269.00 15.26L269.00 15.26L269.00 15.26Q268.55 15.72 267.90 15.98L267.90 15.98L267.90 15.98Q267.26 16.24 266.46 16.24L266.46 16.24L266.46 16.24Q265.68 16.24 264.77 16.00L264.77 16.00L264.77 16.00Q263.86 15.76 263.07 15.35L263.07 15.35L263.07 15.35Q262.28 14.94 261.75 14.40L261.75 14.40L261.75 14.40Q261.23 13.86 261.23 13.26L261.23 13.26L261.23 13.26Q261.23 12.98 261.39 12.54L261.39 12.54L261.39 12.54Q261.55 12.11 261.97 11.63L261.97 11.63L261.97 11.63Q262.01 12.05 262.42 12.63L262.42 12.63L262.42 12.63Q262.84 13.20 263.66 13.69L263.66 13.69L263.66 13.69Q264.43 14.14 265.25 14.34L265.25 14.34L265.25 14.34Q266.07 14.55 266.78 14.55L266.78 14.55L266.78 14.55Q267.57 14.55 268.06 14.35L268.06 14.35L268.06 14.35Q268.55 14.15 268.83 13.88L268.83 13.88L268.83 13.88Q269.11 13.61 269.22 13.33L269.22 13.33L269.22 13.33Q269.33 13.05 269.35 12.88L269.35 12.88L269.35 12.88Q269.33 12.60 269.09 12.34L269.09 12.34L269.09 12.34Q268.84 12.08 268.43 11.84L268.43 11.84L268.43 11.84Q268.02 11.59 267.47 11.34L267.47 11.34L267.47 11.34Q266.92 11.09 266.34 10.84L266.34 10.84L266.34 10.84Q265.45 10.44 264.82 10.10L264.82 10.10L264.82 10.10Q264.18 9.76 263.77 9.40L263.77 9.40L263.77 9.40Q263.35 9.04 263.16 8.65L263.16 8.65L263.16 8.65Q262.98 8.26 262.98 7.76L262.98 7.76L262.98 7.76Q262.98 6.97 263.45 6.27L263.45 6.27L263.45 6.27Q263.93 5.57 264.82 5.21L264.82 5.21L264.82 5.21Q265.27 5.01 265.78 4.93L265.78 4.93L265.78 4.93Q266.29 4.84 266.78 4.84L266.78 4.84L266.78 4.84Q267.71 4.84 268.59 5.10L268.59 5.10L268.59 5.10Q269.47 5.35 270.35 5.74Z"></path></g></svg>